<svg width="134" height="85" viewBox="0 0 134 85" fill="none" xmlns="http://www.w3.org/2000/svg">
<path d="M25.2573 28.929C25.2742 29.6382 25.1929 30.3716 25.0101 31.1292C24.8272 31.8869 24.5699 32.6203 24.2414 33.3295C23.8215 34.2255 23.3136 35.0351 22.7176 35.7547C22.1217 36.4742 21.4783 37.0935 20.7841 37.6194C20.1441 38.0864 19.4737 38.4427 18.7694 38.6849C18.065 38.9271 17.3844 39.0482 16.7275 39.0482H16.6191C15.7963 39.0309 15.0547 38.8371 14.3978 38.4739C13.7409 38.1106 13.1923 37.5813 12.7521 36.8894C12.4609 37.3945 12.2036 37.8477 11.9835 38.249C11.7634 38.6503 11.5805 38.9651 11.4349 39.1865C10.0804 41.4456 8.80384 43.1373 7.59497 44.2582C6.9008 44.874 6.20664 45.3376 5.50908 45.6455C4.81492 45.9534 4.09366 46.1091 3.34193 46.1091C2.26174 46.1091 1.44906 45.8185 0.900497 45.2407C0.389184 44.6803 0.131836 43.9607 0.131836 43.082C0.131836 42.3174 0.311304 41.4975 0.666853 40.6292C1.0224 39.7608 1.51339 38.934 2.13307 38.1487C2.8103 37.2907 3.54171 36.6265 4.32731 36.1594C5.1129 35.6924 5.89172 35.4571 6.657 35.4571C7.29699 35.4571 7.81846 35.6439 8.22141 36.0176C8.57019 36.3532 8.74288 36.8133 8.74288 37.391C8.74288 37.8753 8.62098 38.3908 8.37379 38.9305C8.1266 39.4737 7.79475 39.9753 7.37148 40.4423C6.93128 40.9301 6.44706 41.3107 5.91881 41.5909C5.29576 41.9092 4.69302 42.0683 4.10721 42.0683C3.9616 42.0683 3.84308 42.0234 3.75166 41.9265C3.66023 41.8331 3.61621 41.712 3.61621 41.5632C3.61621 41.4145 3.66023 41.2969 3.75166 41.2138C3.84308 41.1308 3.9616 41.0893 4.10721 41.0893C4.54741 41.0893 4.98762 40.9786 5.43798 40.7537C5.88495 40.5288 6.30145 40.2036 6.68409 39.7747C7.01255 39.401 7.27667 38.9997 7.47984 38.5707C7.67963 38.1417 7.78121 37.7508 7.78121 37.3945C7.78121 37.3011 7.77105 37.1973 7.75412 37.0866C7.73719 36.9759 7.6864 36.8721 7.60174 36.7787C7.52048 36.6853 7.40534 36.6057 7.25974 36.54C7.11413 36.4742 6.91096 36.4431 6.657 36.4431C6.03394 36.4431 5.39395 36.6437 4.73704 37.0451C4.08012 37.4464 3.45706 38.0207 2.87125 38.7679C2.32269 39.4598 1.88926 40.1863 1.56757 40.9544C1.24589 41.7189 1.08674 42.4316 1.08674 43.0854C1.08674 43.722 1.25266 44.2064 1.58112 44.5419C1.92651 44.9329 2.51232 45.13 3.33516 45.13C4.56096 45.13 5.75628 44.5869 6.92789 43.5041C8.07919 42.4593 9.30499 40.8506 10.6019 38.6849C10.7475 38.4427 10.9439 38.1106 11.1911 37.6885C11.4383 37.2699 11.7126 36.7891 12.0139 36.2459C12.3153 35.7028 12.6268 35.1215 12.9451 34.4954C13.2634 33.8692 13.5716 33.2292 13.8628 32.5753C14.303 31.6239 14.645 30.7971 14.8922 30.0948C15.1394 29.396 15.3121 28.7906 15.4137 28.2889C15.5152 27.7838 15.5593 27.3756 15.5491 27.0573C15.5389 26.739 15.5085 26.4865 15.4543 26.2997C15.3459 25.9641 15.1428 25.7392 14.8515 25.6285C14.4317 25.459 14.0152 25.4002 13.6054 25.4452C13.1923 25.4936 12.7995 25.6043 12.427 25.7807C12.0512 25.9572 11.7058 26.1959 11.3841 26.4969C11.0624 26.7944 10.7847 27.1127 10.5477 27.4483C10.1651 28.0468 9.92466 28.6245 9.83323 29.185C9.79599 29.3718 9.7926 29.5759 9.81969 29.8007C9.84678 30.0256 9.94159 30.2401 10.1075 30.4442C10.4732 30.894 10.9202 30.9286 11.4518 30.5549C11.8345 30.3128 12.1291 29.9668 12.3288 29.5171C12.5286 29.1261 12.5659 28.7975 12.4372 28.538C12.3085 28.2405 12.3898 28.026 12.6844 27.8946C12.7928 27.8392 12.9113 27.8288 13.0399 27.8669C13.1686 27.9049 13.26 27.9879 13.3142 28.1194C13.4429 28.3823 13.4937 28.666 13.4666 28.9739C13.4395 29.2818 13.3582 29.5863 13.2194 29.8838C13.084 30.1813 12.9079 30.4685 12.6979 30.7383C12.488 31.0081 12.2544 31.2296 11.997 31.3956C11.594 31.6585 11.1572 31.7866 10.6798 31.7866C10.2057 31.7693 9.76551 31.534 9.36256 31.0877C8.92235 30.5446 8.75981 29.863 8.86817 29.0431C8.97653 28.3131 9.27112 27.597 9.74519 26.8843C10.0364 26.4727 10.3852 26.0852 10.7881 25.7219C11.1911 25.3587 11.6279 25.0681 12.1054 24.8536C12.5794 24.6391 13.0806 24.5076 13.5987 24.4627C14.1201 24.4177 14.645 24.4938 15.1766 24.7014C15.7252 24.9262 16.118 25.3449 16.355 25.9607C16.4464 26.2789 16.4972 26.6387 16.5074 27.04C16.5175 27.4413 16.4668 27.8945 16.355 28.3996C16.8494 27.8565 17.3438 27.3894 17.8348 26.9985C18.512 26.4208 19.1892 25.9606 19.8631 25.6251C20.5403 25.2895 21.1702 25.075 21.756 24.9816C22.7989 24.8328 23.6116 25.075 24.1974 25.7116C24.9085 26.4173 25.2573 27.4898 25.2573 28.929ZM23.3644 32.9074C24.0213 31.5824 24.3328 30.2643 24.2956 28.9566C24.2956 28.3789 24.2313 27.8703 24.1026 27.431C23.9739 26.9916 23.7809 26.6526 23.5269 26.4069C23.1782 25.9952 22.6398 25.8465 21.9083 25.9572C21.414 26.0333 20.8654 26.2236 20.2627 26.5315C19.6599 26.8394 19.0572 27.2476 18.4511 27.7492C17.828 28.2543 17.2659 28.8079 16.7647 29.4167C16.2602 30.0256 15.8369 30.6449 15.4881 31.2814C15.4881 31.2987 15.4848 31.3091 15.4746 31.3091C15.4644 31.3091 15.4611 31.3195 15.4611 31.3368C15.3527 31.5997 15.241 31.8661 15.1326 32.1359C15.0242 32.4058 14.8956 32.6929 14.75 32.9905C14.2759 34.018 13.7917 34.9797 13.2973 35.8757C13.6258 36.5849 14.0795 37.1212 14.6551 37.4879C15.2308 37.8511 15.8945 38.0449 16.6428 38.0622C17.2286 38.0795 17.828 37.9826 18.4409 37.7681C19.0538 37.5536 19.6531 37.2319 20.239 36.8029C20.8789 36.3359 21.4648 35.7754 21.993 35.1215C22.5212 34.4677 22.9784 33.7308 23.3644 32.9074Z" fill="#767676"/>
<path d="M31.0147 40.6952C31.1061 40.7886 31.1569 40.8993 31.167 41.0307C31.1772 41.1622 31.1332 41.2729 31.0451 41.3663C31.0282 41.4044 30.825 41.6292 30.4424 42.0375C30.0597 42.4492 29.545 42.9058 28.9051 43.4109C27.1307 44.774 25.5223 45.4556 24.0798 45.4556C23.3111 45.4556 22.7321 45.3172 22.3393 45.037C21.9465 44.7567 21.6586 44.4661 21.4758 44.1686C21.127 43.5528 21.0288 42.7813 21.1744 41.8576C21.32 40.9339 21.7128 39.9098 22.3528 38.7889C23.2468 37.1629 24.222 35.8379 25.2751 34.8104C26.3248 33.7828 27.3169 33.1843 28.2515 33.0183C28.966 32.9076 29.5586 33.0459 30.0327 33.4403C30.3984 33.7586 30.5981 34.1876 30.6354 34.7308C30.6523 35.2912 30.4796 35.914 30.1139 36.5955C29.7482 37.277 29.2166 37.9724 28.5224 38.6817C27.7538 39.4843 26.9411 40.0724 26.081 40.4461C25.3665 40.7643 24.6825 40.9235 24.0256 40.9235C23.6971 40.9235 23.4025 40.8958 23.1486 40.8405C22.8912 40.7851 22.6813 40.7194 22.5187 40.6433C22.4273 40.8854 22.3494 41.1138 22.2851 41.3282C22.2207 41.5427 22.17 41.7538 22.1327 41.9579C22.0243 42.7052 22.0853 43.276 22.3257 43.6669C22.6169 44.2101 23.2027 44.4799 24.0798 44.4799C24.8281 44.4799 25.5731 44.2897 26.3146 43.9057C27.0562 43.5216 27.7233 43.0996 28.3159 42.6325C28.9084 42.1655 29.3927 41.7365 29.7685 41.3421C30.1444 40.9512 30.3306 40.7436 30.3306 40.7263C30.4221 40.6329 30.5304 40.581 30.6591 40.5706C30.7878 40.5602 30.9063 40.6017 31.0147 40.6952ZM23.1723 39.2663C23.135 39.3597 23.091 39.4428 23.0368 39.5189C22.9826 39.595 22.9352 39.678 22.898 39.7714C23.0436 39.8095 23.2129 39.8475 23.4059 39.8821C23.5989 39.9202 23.8224 39.9375 24.0764 39.9375C25.3394 39.9202 26.5991 39.2732 27.8621 38.0036C28.4479 37.4051 28.8983 36.8238 29.22 36.253C29.5383 35.6822 29.6907 35.1944 29.6737 34.7827C29.6365 34.5405 29.5552 34.3433 29.4265 34.1945C29.1692 33.9697 28.8306 33.9039 28.4107 33.9973C28.045 34.0527 27.6522 34.2188 27.2323 34.4886C26.8124 34.7585 26.3824 35.1113 25.9422 35.5403C24.9534 36.5125 24.0324 37.7545 23.1723 39.2663Z" fill="#767676"/>
<path d="M37.651 33.5787C37.9625 33.6167 38.1182 33.7932 38.1182 34.1115C38.1013 34.2602 38.0404 34.3779 37.9388 34.4609C37.8372 34.5439 37.7255 34.5785 37.5968 34.5577C37.1938 34.5197 36.7198 34.5024 36.1712 34.5024C35.6226 34.5024 35.0741 34.5128 34.5255 34.5301C34.1226 35.2012 33.7332 35.8793 33.3607 36.5609C32.9848 37.2424 32.6631 37.8651 32.3888 38.4256C31.8572 39.4704 31.4712 40.3457 31.224 41.0445C30.9768 41.7434 30.8075 42.3108 30.7161 42.7398C30.6247 43.1687 30.5976 43.4974 30.6348 43.7188C30.6721 43.9437 30.7161 44.0925 30.7736 44.1686C30.7906 44.2066 30.838 44.2585 30.9091 44.3243C30.9836 44.39 31.136 44.4211 31.3764 44.4211C31.6879 44.4211 32.0672 44.3139 32.5141 44.0994C32.9611 43.8849 33.4521 43.5804 33.9803 43.1895C34.4205 42.8539 34.8607 42.4734 35.3111 42.0548C35.7581 41.6327 36.1475 41.2175 36.476 40.8093C36.5674 40.7159 36.6757 40.6605 36.8044 40.6398C36.9331 40.6225 37.0516 40.6571 37.16 40.7505C37.2514 40.8439 37.3056 40.9546 37.3259 41.086C37.3428 41.2175 37.309 41.3386 37.2175 41.4493C36.8518 41.8783 36.4353 42.3142 35.9714 42.7536C35.5041 43.193 35.0267 43.5977 34.5323 43.9714C33.2896 44.9228 32.2365 45.4002 31.3798 45.4002C30.9599 45.4002 30.6382 45.3206 30.4215 45.1615C30.2014 45.0023 30.0456 44.8397 29.9542 44.6702C29.6054 44.1098 29.5986 43.2137 29.9271 41.9786C30.2014 40.9338 30.7398 39.5984 31.5457 37.9724C31.803 37.4673 32.0841 36.9207 32.3956 36.3325C32.7071 35.7444 33.0458 35.1424 33.4115 34.5266C33.1541 34.5439 32.9205 34.5578 32.7105 34.5681C32.5006 34.5785 32.3211 34.582 32.1755 34.582C31.9927 34.5993 31.8267 34.6096 31.6811 34.6096H31.654C31.3628 34.6096 31.1969 34.4505 31.1597 34.1322C31.1597 33.9835 31.2003 33.8624 31.2816 33.769C31.3628 33.6756 31.478 33.6271 31.6236 33.6271C31.6608 33.6271 31.9012 33.6167 32.3516 33.5994C32.7986 33.5821 33.3437 33.5614 33.9837 33.5441C34.3122 32.9836 34.6271 32.4508 34.9285 31.9457C35.2298 31.4406 35.494 30.9943 35.7242 30.5999C35.9511 30.209 36.2118 29.78 36.5064 29.3095C36.5809 29.1988 36.6791 29.1227 36.8078 29.0846C36.9365 29.0466 37.055 29.0673 37.1633 29.14C37.4376 29.3268 37.4918 29.5621 37.3293 29.8423C37.0719 30.2332 36.845 30.6 36.6453 30.9355C36.4455 31.2711 36.2118 31.6586 35.9443 32.098C35.6802 32.5373 35.3992 33.0079 35.1079 33.513C35.582 33.513 36.0459 33.513 36.4929 33.513C36.9331 33.5233 37.3225 33.5406 37.651 33.5787Z" fill="#767676"/>
<path d="M45.9864 40.7539C46.0779 40.8473 46.132 40.958 46.1524 41.0895C46.1693 41.2209 46.1354 41.342 46.044 41.4527C46.0068 41.4908 45.9627 41.5357 45.9086 41.5911C45.8544 41.6465 45.807 41.7018 45.7731 41.7606C44.9333 42.8054 44.1647 43.6772 43.4705 44.3656C42.7763 45.0576 42.1364 45.4035 41.5505 45.4035C41.0392 45.4035 40.6634 45.1994 40.4263 44.7877C40.1893 44.338 40.1893 43.6876 40.4263 42.8262C40.6634 41.9855 41.1747 40.8646 41.9637 39.4635C42.1093 39.2006 42.1194 38.7785 41.9907 38.1904C41.8621 37.6023 41.6081 36.9069 41.2221 36.1043C40.7277 36.8135 40.1554 37.6092 39.5087 38.4844C38.8585 39.3632 38.1068 40.3422 37.2467 41.425C37.1553 41.5358 37.0469 41.6015 36.9182 41.6222C36.7896 41.6395 36.6812 41.6049 36.5898 41.5115C36.4814 41.4181 36.4171 41.3074 36.3968 41.1759C36.3798 41.0445 36.4137 40.9234 36.5051 40.8127C38.3337 38.4775 39.7322 36.5921 40.7006 35.1529C40.5347 34.8 40.4907 34.3745 40.5652 33.8798C40.6363 33.3851 40.7209 32.9803 40.8124 32.6621C40.8496 32.5686 40.9004 32.4233 40.9647 32.2262C41.0291 32.029 41.1171 31.8214 41.2255 31.5965C41.3338 31.3716 41.4591 31.1468 41.5946 30.9254C41.7334 30.7005 41.8925 30.5137 42.0754 30.3649C42.2752 30.1954 42.4851 30.1089 42.7052 30.0986C42.9253 30.0882 43.1251 30.1677 43.308 30.3373C43.6906 30.6728 43.7753 31.2264 43.5552 31.9909C43.3554 32.5894 42.9795 33.347 42.431 34.2604C42.3395 34.4091 42.2447 34.5648 42.1431 34.7239C42.0415 34.8831 41.9366 35.0457 41.8282 35.2152C43.0168 37.4397 43.3351 39.0241 42.7865 39.979C42.3124 40.8196 41.9603 41.5115 41.73 42.0512C41.4998 42.5944 41.3508 43.0268 41.2763 43.3554C41.2018 43.6841 41.1747 43.9159 41.195 44.0543C41.2119 44.1961 41.2322 44.2826 41.2492 44.3207C41.2661 44.338 41.2932 44.3622 41.3304 44.3899C41.3677 44.4175 41.4388 44.4314 41.5505 44.4314C41.642 44.4314 41.8079 44.3691 42.0449 44.248C42.282 44.1269 42.6206 43.8433 43.0608 43.3935C43.4096 43.0752 43.7448 42.7155 44.0766 42.3141C44.4051 41.9128 44.7268 41.5254 45.0349 41.1517C45.0722 41.0964 45.1162 41.041 45.1704 40.9822C45.2245 40.9269 45.272 40.8715 45.3058 40.8127C45.3972 40.7193 45.5056 40.6639 45.6343 40.6432C45.7596 40.6224 45.8781 40.6605 45.9864 40.7539ZM41.5438 33.8591C41.5607 33.821 41.5742 33.8002 41.5844 33.7899C41.5946 33.7795 41.6081 33.7587 41.625 33.7207C41.9163 33.2363 42.1364 32.835 42.282 32.5168C42.4276 32.1985 42.5393 31.939 42.6104 31.7314C42.6849 31.5273 42.7188 31.3786 42.7188 31.2817C42.7188 31.1883 42.7086 31.1226 42.6917 31.0845C42.6172 31.1399 42.5122 31.2609 42.3768 31.4478C42.2379 31.6346 42.0991 31.9148 41.9501 32.2884C41.8418 32.5686 41.7537 32.8454 41.6894 33.1153C41.6318 33.3886 41.581 33.6342 41.5438 33.8591Z" fill="#767676"/>
<path d="M53.3387 40.8922C53.1016 41.3212 52.8003 41.7986 52.4346 42.321C52.0688 42.8434 51.649 43.345 51.1715 43.819C50.6974 44.2964 50.1692 44.6908 49.5935 45.0091C49.0179 45.3274 48.4016 45.4865 47.7413 45.4865C47.0844 45.4865 46.5765 45.355 46.2175 45.0956C45.862 44.8327 45.6012 44.5628 45.4353 44.2826C45.0324 43.5907 44.9308 42.6947 45.1339 41.5911C45.3337 40.5463 45.7638 39.4254 46.4241 38.2284C46.6814 37.7786 47.0268 37.2493 47.467 36.6301C47.9072 36.0143 48.4185 35.4158 49.0043 34.838C49.2244 34.6132 49.475 34.3848 49.7595 34.153C50.0439 33.9212 50.3351 33.7102 50.6365 33.5234C50.9379 33.3366 51.2494 33.1844 51.5677 33.0598C51.886 32.9387 52.2043 32.8765 52.5124 32.8765C52.658 32.8765 52.7766 32.9249 52.868 33.0183C52.9594 33.1117 53.0034 33.2328 53.0034 33.3816C53.0034 33.5303 52.9594 33.648 52.868 33.731C52.7766 33.814 52.658 33.8555 52.5124 33.8555C52.1467 33.8555 51.7167 34.0008 51.2223 34.2914C50.7279 34.582 50.2166 34.9972 49.685 35.5369C49.1364 36.08 48.6522 36.6404 48.2323 37.2182C47.8124 37.7959 47.484 38.2941 47.2435 38.7023C46.6408 39.7852 46.2548 40.8023 46.0922 41.7571C45.9263 42.5978 45.9906 43.2689 46.2852 43.774C46.5223 44.2618 47.0065 44.504 47.7379 44.504C48.1206 44.504 48.4863 44.4244 48.835 44.2653C49.1838 44.1061 49.5157 43.9055 49.8373 43.6633C50.1556 43.4212 50.4536 43.1513 50.7279 42.8503C51.0022 42.5528 51.2494 42.2622 51.4695 41.982C51.6151 41.7952 51.7438 41.6118 51.8521 41.4354C51.9605 41.2589 52.0722 41.086 52.1806 40.9164C51.7979 40.8784 51.4898 40.785 51.2629 40.6362C51.0327 40.4875 50.8566 40.3387 50.7279 40.1865C50.3453 39.7367 50.1523 39.159 50.1523 38.4498C50.1523 38.0208 50.2166 37.5814 50.3453 37.1317C50.4739 36.682 50.6636 36.2737 50.9209 35.9001C51.5237 35.0041 52.2111 34.5544 52.9763 34.5544C53.5622 34.5544 54.0091 34.8069 54.3207 35.312C54.6119 35.779 54.7372 36.3879 54.6898 37.1317C54.6423 37.879 54.4019 38.7196 53.9617 39.6537C53.8161 39.9512 53.6976 40.19 53.6062 40.3698C53.5215 40.5532 53.4301 40.7262 53.3387 40.8922ZM52.9831 35.5403C52.763 35.5403 52.5429 35.6233 52.3262 35.7929C52.1061 35.9624 51.9063 36.1838 51.7235 36.464C51.5406 36.7442 51.395 37.0556 51.2833 37.4016C51.1749 37.7475 51.1173 38.0969 51.1173 38.4532C51.1173 38.602 51.1343 38.7819 51.1715 38.986C51.2087 39.1901 51.3002 39.377 51.4458 39.5465C51.6828 39.8267 52.0655 39.9685 52.5971 39.9685H52.7359C52.8274 39.7817 52.9018 39.6364 52.956 39.5326C53.0102 39.4288 53.0474 39.37 53.0644 39.3493C53.3217 38.7715 53.4944 38.2768 53.5859 37.8651C53.6773 37.4534 53.7213 37.1075 53.7213 36.8273C53.7213 36.547 53.6976 36.3291 53.6536 36.17C53.6096 36.0108 53.5655 35.9036 53.5317 35.8482C53.3827 35.6441 53.2032 35.5403 52.9831 35.5403Z" fill="#767676"/>
<path d="M56.4102 46.9156C55.8786 46.9156 55.479 46.8049 55.2047 46.58C54.9305 46.3551 54.7205 46.1302 54.5749 45.9088C54.155 45.1616 54.1279 44.0683 54.4936 42.6291C54.6596 41.958 54.9135 41.2245 55.2623 40.4288C55.6111 39.6366 56.031 38.8097 56.5254 37.9483C56.7624 37.5366 57.0502 37.0384 57.3888 36.4503C57.7275 35.8622 58.0796 35.2498 58.4453 34.6132C58.811 33.9801 59.1767 33.347 59.5425 32.7208C59.9082 32.0946 60.2332 31.5307 60.5143 31.0256C60.7987 30.5205 61.0324 30.1157 61.2152 29.8078C61.3981 29.4999 61.4895 29.3373 61.4895 29.3166C61.6554 29.0537 61.8722 28.9983 62.1464 29.1471C62.4038 29.3166 62.458 29.538 62.3124 29.8182C62.3124 29.8355 62.2209 30.0016 62.0381 30.3095C61.8552 30.6174 61.6216 31.0187 61.3371 31.5134C61.0527 32.0081 60.7276 32.5755 60.3653 33.2086C59.9996 33.8452 59.6339 34.4783 59.2682 35.1149C58.9025 35.7515 58.5503 36.3603 58.2117 36.9519C57.8731 37.5401 57.5852 38.0417 57.3482 38.4499C56.8741 39.2733 56.4712 40.0552 56.1427 40.8025C55.8143 41.5497 55.5671 42.2417 55.4012 42.8748C55.1099 44.0337 55.1167 44.8848 55.4282 45.4245C55.6111 45.7601 55.9396 45.9296 56.417 45.9296C56.7624 45.9296 57.0875 45.8189 57.3888 45.594C57.6902 45.3691 57.9611 45.0993 58.1981 44.781C58.4352 44.4627 58.6417 44.1375 58.8144 43.8019C58.9871 43.4664 59.1293 43.1861 59.2411 42.9613L59.2953 42.9059C59.4239 42.6257 59.6339 42.5496 59.9251 42.681C60.0538 42.7364 60.135 42.8298 60.1723 42.9613C60.2095 43.0927 60.1994 43.2138 60.1452 43.3245L60.1181 43.4075C59.9894 43.6705 59.8167 43.9957 59.5966 44.3866C59.3765 44.7776 59.1158 45.1616 58.8144 45.5352C58.5131 45.9088 58.1609 46.2306 57.7579 46.5004C57.3516 46.7807 56.9046 46.9156 56.4102 46.9156Z" fill="#767676"/>
<path d="M72.4552 33.6654C71.7983 34.731 71.2159 35.7792 70.7147 36.8171C70.2102 37.855 69.814 38.8479 69.5228 39.8028C69.2315 40.7542 69.0656 41.5948 69.0284 42.3248C68.9911 43.0548 69.0927 43.6326 69.3297 44.0616C69.621 44.6393 70.1898 44.9299 71.0296 44.9299C72.2554 44.9299 73.6912 43.9197 75.3368 41.9028C76.0513 41.0067 76.7082 40.083 77.311 39.1281C77.9137 38.1767 78.425 37.343 78.8483 36.6337C78.9567 36.4469 79.0583 36.2739 79.1497 36.1148C79.2411 35.9556 79.3325 35.8104 79.424 35.6789C79.424 35.6616 79.4273 35.6512 79.4375 35.6512C79.4477 35.6512 79.4511 35.6408 79.4511 35.6235C79.7998 34.987 80.1317 34.3781 80.4534 33.7865C80.7717 33.1983 81.0798 32.6621 81.371 32.1743C81.4252 32.0428 81.5166 31.9598 81.6453 31.9217C81.774 31.8837 81.9027 31.9044 82.0279 31.9771C82.1363 32.0532 82.2108 32.1535 82.248 32.285C82.2853 32.4164 82.265 32.5375 82.1939 32.6483C81.7909 33.3402 81.3676 34.1047 80.9173 34.9454C80.4703 35.7861 80.0132 36.6441 79.5459 37.5229C79.0786 38.4016 78.6181 39.2803 78.1609 40.1556C77.7038 41.0344 77.2771 41.8543 76.8843 42.6224C76.4915 43.3869 76.1427 44.0754 75.8414 44.6808C75.54 45.2897 75.3064 45.7499 75.1404 46.0681C75.3402 45.9574 75.5468 45.8398 75.7567 45.7187C75.9667 45.5976 76.1834 45.4627 76.4001 45.314C77.0943 44.8642 77.8629 44.2864 78.7027 43.5772C79.5425 42.868 80.3856 41.9443 81.2254 40.8026C81.3168 40.6919 81.4252 40.6262 81.5539 40.6054C81.6825 40.5881 81.8011 40.6158 81.9094 40.6884C82.0009 40.7818 82.0618 40.8925 82.0889 41.024C82.116 41.1555 82.0855 41.2766 81.9941 41.3873C81.0967 42.5843 80.2062 43.5495 79.319 44.2864C78.4318 45.0233 77.6327 45.6357 76.9182 46.1235C76.4441 46.4418 75.9904 46.7151 75.5603 46.9504C75.1303 47.1856 74.7239 47.3759 74.3413 47.5247C73.7555 48.4761 73.1527 49.251 72.5297 49.8495C71.6527 50.6902 70.8738 51.1192 70.2 51.14H70.1187C69.5871 51.14 69.2045 50.9359 68.9674 50.5242C68.7846 50.2439 68.7473 49.9083 68.8591 49.5139C68.9674 49.1403 69.2011 48.784 69.56 48.4484C69.9156 48.1128 70.349 47.8499 70.8637 47.663C70.972 47.625 71.1007 47.5835 71.2463 47.5385C71.3919 47.4901 71.5477 47.4416 71.7136 47.3828C71.971 47.3067 72.2622 47.2202 72.5906 47.1164C72.9191 47.0126 73.2848 46.8881 73.6878 46.7393C73.7419 46.6459 73.8029 46.5421 73.8672 46.4314C73.9316 46.3207 73.9891 46.2065 74.0467 46.0958C74.084 46.0578 74.2397 45.7637 74.514 45.2136C74.7883 44.6636 75.1371 43.9682 75.5569 43.1275C74.9339 43.8367 74.3142 44.4248 73.6911 44.8919C72.7599 45.563 71.8728 45.9021 71.0296 45.9021C70.2779 45.9021 69.709 45.7533 69.3162 45.4523C68.9234 45.1548 68.6457 44.8469 68.4798 44.5286C67.8771 43.4077 67.9143 41.7367 68.5882 39.5121C68.8997 38.5227 69.3162 37.4814 69.8343 36.3881C70.3558 35.2949 70.9619 34.2085 71.6594 33.1222C72.0996 32.4303 72.6482 31.6934 73.3051 30.908C73.1595 30.7212 73.0308 30.5344 72.9225 30.3476C72.4484 29.4135 72.3367 28.2753 72.594 26.9295C72.7024 26.331 72.8852 25.7255 73.1426 25.1097C73.3999 24.4939 73.7081 23.9127 74.0738 23.373C74.2736 23.1101 74.5038 23.0651 74.7578 23.2311C74.8662 23.3245 74.9373 23.4353 74.9644 23.5667C74.9914 23.6982 74.961 23.8193 74.8695 23.93C74.5411 24.4143 74.2566 24.9333 74.0196 25.4868C73.7826 26.0369 73.6167 26.5835 73.5252 27.1267C73.4338 27.6698 73.4067 28.1715 73.444 28.6385C73.4812 29.1056 73.5997 29.5242 73.7995 29.8978C73.8164 29.9359 73.8401 29.9809 73.8672 30.0397C73.8943 30.095 73.9282 30.1435 73.962 30.1815C74.8018 29.2682 75.689 28.4171 76.6236 27.6318C76.9148 27.3896 77.2737 27.1128 77.6936 26.8049C78.1135 26.497 78.5571 26.203 79.0244 25.9227C79.4917 25.6425 79.9624 25.4107 80.4364 25.2239C80.9105 25.0371 81.3609 24.9333 81.7808 24.916C82.2006 24.8779 82.5291 24.9333 82.7695 25.0855C83.0065 25.2342 83.1792 25.383 83.291 25.5353C83.4908 25.7982 83.5822 26.1234 83.5653 26.5143C83.5483 26.9053 83.4298 27.3446 83.2097 27.8324C82.9524 28.3548 82.607 28.8738 82.1668 29.3893C81.7266 29.9048 81.2254 30.3649 80.6599 30.7766C80.1859 31.1122 79.5899 31.4443 78.8788 31.7695C78.1643 32.0982 77.3415 32.2608 76.4103 32.2608C75.6043 32.2608 74.8831 32.0843 74.2431 31.728C74.2058 31.7107 74.1686 31.6899 74.1347 31.6726C74.0975 31.6553 74.0602 31.6277 74.0264 31.5896C73.4338 32.2642 72.9123 32.9527 72.4552 33.6654ZM71.8795 49.1576C72.208 48.822 72.5094 48.476 72.7837 48.1197C72.638 48.1578 72.4958 48.1958 72.357 48.2304C72.2182 48.2685 72.0861 48.3065 71.9608 48.3411C71.8152 48.3792 71.673 48.4172 71.5341 48.4518C71.3953 48.4899 71.2836 48.528 71.1921 48.5626C70.7892 48.7321 70.4641 48.9327 70.2169 49.1645C69.9697 49.3963 69.8207 49.6074 69.7632 49.7942C69.7462 49.9049 69.7462 49.9706 69.7632 49.9914C69.8004 50.0294 69.8444 50.0709 69.8986 50.1159C69.9528 50.1609 70.0375 50.1747 70.1458 50.1574C70.6097 50.1298 71.1854 49.7942 71.8795 49.1576ZM77.2263 28.424C76.3121 29.154 75.4621 29.9636 74.6765 30.8631C75.1167 31.1433 75.6924 31.2817 76.4035 31.2817C77.0977 31.2817 77.7613 31.1571 78.3912 30.9046C79.021 30.652 79.5967 30.3337 80.1181 29.9532C80.6396 29.5692 81.0866 29.1506 81.4625 28.6939C81.8383 28.2372 82.1261 27.8013 82.3259 27.3896C82.4918 27.0713 82.5833 26.8049 82.6002 26.5904C82.6171 26.3759 82.6002 26.2306 82.546 26.1545C82.5088 26.1165 82.4444 26.0611 82.353 25.985C82.2616 25.9089 82.0889 25.8812 81.8315 25.902C81.2999 25.9193 80.6328 26.1511 79.8303 26.587C79.0278 27.0263 78.1609 27.6387 77.2263 28.424Z" fill="#767676"/>
<path d="M93.0227 40.754C93.1141 40.8474 93.1683 40.9581 93.1886 41.0896C93.2055 41.221 93.1717 41.3421 93.0802 41.4528C93.043 41.4909 93.0023 41.5359 92.9583 41.5912C92.9109 41.6466 92.8635 41.7019 92.8059 41.7607C91.9662 42.8055 91.1975 43.6774 90.5033 44.3658C89.8092 45.0578 89.1692 45.4037 88.5834 45.4037C88.1635 45.4037 87.8485 45.3242 87.6386 45.165C87.4287 45.0059 87.2763 44.8433 87.1849 44.6738C86.9851 44.3001 86.9106 43.8434 86.9648 43.3003C85.7017 44.7948 84.4861 45.5421 83.3178 45.5421C82.6778 45.5421 82.1936 45.4106 81.8651 45.1512C81.5367 44.8882 81.2996 44.6288 81.1506 44.3658C80.768 43.6566 80.7037 42.7675 80.9576 41.7054C81.066 41.183 81.2421 40.6467 81.4791 40.0932C81.7161 39.5431 82.0107 38.9861 82.3561 38.4257C83.3449 36.855 84.459 35.613 85.7017 34.6996C86.2503 34.3087 86.7819 34.0043 87.2932 33.7898C87.8045 33.5753 88.2718 33.468 88.6917 33.468C89.1658 33.468 89.5383 33.551 89.8024 33.7206C90.0665 33.8901 90.2629 34.0665 90.3916 34.2533C90.5914 34.5163 90.72 34.8242 90.7742 35.1771C90.9198 34.9522 91.0383 34.755 91.1298 34.5889C91.2212 34.4194 91.3126 34.2707 91.4041 34.1392C91.4785 33.9904 91.5598 33.859 91.6512 33.7482C91.7257 33.6375 91.8239 33.5649 91.9526 33.5372C92.0813 33.5095 92.1998 33.5337 92.3082 33.6064C92.4165 33.6825 92.491 33.7828 92.5283 33.9143C92.5655 34.0458 92.5384 34.1669 92.447 34.2776C92.447 34.2949 92.21 34.6824 91.7325 35.44C91.2584 36.1977 90.6625 37.2009 89.9514 38.4533C89.4773 39.294 89.0913 40.0378 88.8001 40.6813C88.5089 41.3248 88.2921 41.8853 88.1567 42.3627C88.0179 42.8401 87.94 43.2276 87.923 43.5252C87.9061 43.8227 87.94 44.0406 88.0314 44.1686C88.0483 44.2067 88.089 44.2586 88.1533 44.3243C88.2176 44.3901 88.3599 44.4212 88.58 44.4212C88.6714 44.4212 88.8373 44.3589 89.0744 44.2378C89.3114 44.1168 89.6602 43.8331 90.1173 43.3833C90.4458 43.065 90.7742 42.7052 91.1061 42.3039C91.4345 41.9026 91.7562 41.5151 92.0644 41.1415C92.1185 41.0861 92.1693 41.0308 92.2167 40.972C92.2608 40.9166 92.3048 40.8612 92.3386 40.8024C92.4301 40.709 92.5384 40.6537 92.6671 40.6329C92.7958 40.6225 92.9143 40.6606 93.0227 40.754ZM86.4162 42.4631C86.8733 41.9026 87.239 41.394 87.5133 40.9373C87.7876 40.4807 87.9332 40.242 87.9535 40.2212C87.9535 40.2039 87.9569 40.1935 87.9671 40.1935C87.9772 40.1935 87.9806 40.1832 87.9806 40.1659C88.2549 39.5327 88.6375 38.7924 89.1319 37.9517C89.2233 37.7822 89.3182 37.6161 89.4197 37.4466C89.5213 37.2771 89.6161 37.1214 89.7076 36.9692V36.9138C89.7245 36.8204 89.7516 36.6855 89.7888 36.509C89.8261 36.3326 89.8464 36.1458 89.8566 35.9486C89.8667 35.7514 89.8566 35.5576 89.8295 35.3604C89.8024 35.1632 89.7347 34.9902 89.6229 34.8415C89.4231 34.5785 89.1116 34.4505 88.6917 34.4505C88.4344 34.4505 88.0957 34.5301 87.6759 34.6893C87.256 34.8484 86.7988 35.1079 86.3044 35.4746C85.8101 35.8379 85.2886 36.3049 84.74 36.8757C84.1915 37.4466 83.6598 38.142 83.1485 38.9619C82.5085 39.9894 82.0886 40.9685 81.8855 41.9026C81.7195 42.7813 81.7568 43.4421 81.9938 43.8919C82.2139 44.3416 82.6507 44.5631 83.311 44.5631C84.2287 44.5631 85.2615 43.8642 86.4162 42.4631Z" fill="#767676"/>
<path d="M101.826 40.7539C101.918 40.8473 101.972 40.958 101.992 41.0895C102.009 41.2209 101.975 41.342 101.884 41.4527C101.847 41.4908 101.803 41.5357 101.745 41.5911C101.691 41.6465 101.643 41.7018 101.61 41.7606C100.77 42.8054 100.001 43.6772 99.3069 44.3656C98.6128 45.0576 97.9728 45.4035 97.387 45.4035C96.8757 45.4035 96.4998 45.1994 96.2628 44.7877C96.0257 44.338 96.0257 43.6876 96.2628 42.8262C96.4998 41.9855 97.0111 40.8646 97.8001 39.4635C97.9457 39.2006 97.9558 38.7785 97.8272 38.1904C97.6985 37.6023 97.4445 36.9069 97.0585 36.1043C96.5641 36.8135 95.9919 37.6092 95.3451 38.4844C94.695 39.3632 93.9432 40.3422 93.0831 41.425C92.9917 41.5358 92.8834 41.6015 92.7547 41.6222C92.626 41.6395 92.5176 41.6049 92.4262 41.5115C92.3179 41.4181 92.2535 41.3074 92.2332 41.1759C92.2163 41.0445 92.2501 40.9234 92.3416 40.8127C94.1701 38.4775 95.5686 36.5921 96.537 35.1529C96.3711 34.8 96.3271 34.3745 96.3982 33.8798C96.4727 33.3851 96.554 32.9803 96.6454 32.6621C96.6826 32.5686 96.7334 32.4233 96.7978 32.2262C96.8621 32.029 96.9502 31.8214 97.0585 31.5965C97.1669 31.3716 97.2922 31.1468 97.4276 30.9254C97.5664 30.7005 97.7256 30.5137 97.9084 30.3649C98.1082 30.1954 98.3216 30.1089 98.5383 30.0986C98.7584 30.0882 98.9582 30.1677 99.141 30.3373C99.5237 30.6728 99.6083 31.2264 99.3882 31.9909C99.1884 32.5894 98.8126 33.347 98.264 34.2604C98.1726 34.4091 98.0778 34.5648 97.9762 34.7239C97.8746 34.8831 97.7696 35.0457 97.6613 35.2152C98.8498 37.4397 99.1681 39.0241 98.6195 39.979C98.1455 40.8196 97.7933 41.5115 97.5631 42.0512C97.3328 42.5944 97.1838 43.0268 97.1093 43.3554C97.0348 43.6841 97.0077 43.9159 97.028 44.0543C97.045 44.1961 97.0653 44.2826 97.0822 44.3207C97.0991 44.338 97.1262 44.3622 97.1635 44.3899C97.2007 44.4175 97.2718 44.4314 97.3836 44.4314C97.475 44.4314 97.6409 44.3691 97.878 44.248C98.115 44.1269 98.4536 43.8433 98.8938 43.3935C99.2392 43.0752 99.5778 42.7155 99.9097 42.3141C100.238 41.9128 100.56 41.5254 100.868 41.1517C100.905 41.0964 100.949 41.041 101.007 40.9822C101.061 40.9269 101.108 40.8715 101.146 40.8127C101.237 40.7193 101.345 40.6639 101.474 40.6432C101.599 40.6224 101.718 40.6605 101.826 40.7539ZM97.3836 33.8591C97.4005 33.821 97.4141 33.8002 97.4242 33.7899C97.4344 33.7795 97.4479 33.7587 97.4649 33.7207C97.7561 33.2363 97.9762 32.835 98.1218 32.5168C98.2674 32.1985 98.3791 31.939 98.4502 31.7314C98.5247 31.5273 98.5586 31.3786 98.5586 31.2817C98.5586 31.1883 98.5484 31.1226 98.5315 31.0845C98.457 31.1399 98.352 31.2609 98.2166 31.4478C98.0778 31.6346 97.9389 31.9148 97.7899 32.2884C97.6816 32.5686 97.5935 32.8454 97.5292 33.1153C97.4716 33.3886 97.4208 33.6342 97.3836 33.8591Z" fill="#767676"/>
<path d="M112.932 40.754C113.024 40.8474 113.078 40.9581 113.098 41.0896C113.115 41.221 113.081 41.3421 112.99 41.4528C112.953 41.4909 112.912 41.5359 112.868 41.5912C112.824 41.6466 112.773 41.7019 112.716 41.7607C111.876 42.8055 111.107 43.6774 110.413 44.3658C109.719 45.0578 109.079 45.4037 108.493 45.4037C108.073 45.4037 107.758 45.3242 107.548 45.165C107.338 45.0059 107.186 44.8433 107.094 44.6738C106.895 44.3001 106.82 43.8434 106.874 43.3003C105.611 44.7948 104.396 45.5421 103.227 45.5421C102.587 45.5421 102.103 45.4106 101.775 45.1512C101.446 44.8882 101.209 44.6288 101.06 44.3658C100.678 43.6566 100.613 42.7675 100.867 41.7054C100.976 41.183 101.152 40.6467 101.389 40.0932C101.626 39.5431 101.92 38.9861 102.266 38.4257C103.255 36.855 104.369 35.613 105.611 34.6996C106.16 34.3087 106.692 34.0043 107.203 33.7898C107.714 33.5753 108.181 33.468 108.601 33.468C109.075 33.468 109.448 33.551 109.712 33.7206C109.976 33.8901 110.173 34.0665 110.301 34.2533C110.501 34.5163 110.63 34.8242 110.684 35.1771C110.829 34.9522 110.948 34.755 111.039 34.5889C111.131 34.4194 111.222 34.2707 111.314 34.1392C111.388 33.9904 111.469 33.859 111.561 33.7482C111.635 33.6375 111.734 33.5649 111.862 33.5372C111.991 33.5095 112.109 33.5337 112.218 33.6064C112.326 33.6825 112.401 33.7828 112.438 33.9143C112.475 34.0458 112.448 34.1669 112.357 34.2776C112.357 34.2949 112.12 34.6824 111.642 35.44C111.168 36.1977 110.572 37.2009 109.861 38.4533C109.387 39.294 109.001 40.0378 108.71 40.6813C108.418 41.3248 108.202 41.8853 108.066 42.3627C107.931 42.8401 107.85 43.2276 107.833 43.5252C107.816 43.8227 107.85 44.0406 107.941 44.1686C107.958 44.2067 107.999 44.2586 108.063 44.3243C108.127 44.3901 108.269 44.4212 108.49 44.4212C108.581 44.4212 108.747 44.3589 108.984 44.2378C109.221 44.1168 109.57 43.8331 110.027 43.3833C110.355 43.065 110.684 42.7052 111.016 42.3039C111.344 41.9026 111.666 41.5151 111.974 41.1415C112.028 41.0861 112.079 41.0308 112.126 40.972C112.17 40.9166 112.214 40.8612 112.248 40.8024C112.34 40.709 112.448 40.6537 112.577 40.6329C112.705 40.6225 112.824 40.6606 112.932 40.754ZM106.322 42.4631C106.78 41.9026 107.145 41.394 107.42 40.9373C107.694 40.4807 107.839 40.242 107.86 40.2212C107.86 40.2039 107.863 40.1935 107.873 40.1935C107.883 40.1935 107.887 40.1832 107.887 40.1659C108.161 39.5327 108.544 38.7924 109.038 37.9517C109.13 37.7822 109.224 37.6161 109.326 37.4466C109.428 37.2771 109.522 37.1214 109.614 36.9692V36.9138C109.631 36.8204 109.658 36.6855 109.695 36.509C109.732 36.3326 109.753 36.1458 109.763 35.9486C109.773 35.7514 109.763 35.5576 109.736 35.3604C109.709 35.1632 109.641 34.9902 109.529 34.8415C109.329 34.5785 109.018 34.4505 108.598 34.4505C108.341 34.4505 108.002 34.5301 107.582 34.6893C107.162 34.8484 106.705 35.1079 106.211 35.4746C105.716 35.8379 105.195 36.3049 104.646 36.8757C104.098 37.4466 103.566 38.142 103.055 38.9619C102.415 39.9894 101.995 40.9685 101.792 41.9026C101.626 42.7813 101.663 43.4421 101.9 43.8919C102.12 44.3416 102.557 44.5631 103.217 44.5631C104.138 44.5631 105.171 43.8642 106.322 42.4631Z" fill="#767676"/>
<path d="M124.285 40.7538C124.393 40.8472 124.458 40.9579 124.478 41.0894C124.495 41.2209 124.461 41.3419 124.37 41.4526C124.332 41.4907 124.302 41.5288 124.275 41.5634C124.248 41.6014 124.214 41.6395 124.18 41.6741C123.997 41.8989 123.763 42.1792 123.479 42.5147C123.195 42.8503 122.866 43.1998 122.49 43.5665C122.114 43.9297 121.708 44.2895 121.271 44.6459C120.831 45.0022 120.357 45.2997 119.846 45.5419C119.497 45.7114 119.141 45.8602 118.776 45.9917C118.41 46.1231 118.044 46.2546 117.678 46.3826C117.184 47.2786 116.646 48.0536 116.06 48.7074C115.22 49.6415 114.431 50.1536 113.7 50.247C113.662 50.247 113.625 50.2504 113.591 50.2608C113.554 50.2712 113.517 50.2746 113.483 50.2746C113.009 50.2746 112.633 50.0878 112.359 49.7142C112.139 49.472 112.074 49.126 112.166 48.6763C112.257 48.2646 112.477 47.8771 112.823 47.5139C113.171 47.1506 113.608 46.8358 114.14 46.5763C114.485 46.4276 114.861 46.2857 115.264 46.1542C115.667 46.0228 116.077 45.8844 116.497 45.7356C116.588 45.6976 116.676 45.6699 116.757 45.6526C116.839 45.6353 116.927 45.6042 117.018 45.5696C117.093 45.4208 117.16 45.2721 117.225 45.1198C117.289 44.9711 117.357 44.8223 117.431 44.6701C117.448 44.632 117.496 44.5144 117.567 44.3207C117.641 44.1235 117.75 43.8571 117.895 43.5215C116.578 44.8673 115.389 45.5385 114.33 45.5385C113.69 45.5385 113.205 45.407 112.877 45.1475C112.548 44.8846 112.311 44.6251 112.162 44.3622C111.78 43.653 111.715 42.7638 111.969 41.7017C112.078 41.1793 112.254 40.6431 112.491 40.0896C112.728 39.5395 113.022 38.9825 113.368 38.422C114.357 36.8514 115.471 35.6094 116.713 34.6961C117.262 34.3051 117.79 34.0007 118.305 33.7862C118.816 33.5717 119.284 33.4644 119.703 33.4644C120.177 33.4644 120.55 33.5475 120.814 33.717C121.078 33.8865 121.275 34.063 121.403 34.2498C121.512 34.3812 121.613 34.5577 121.705 34.7825C121.796 34.5784 121.888 34.3812 121.979 34.1944C122.07 34.0076 122.162 33.8104 122.253 33.6063C122.399 33.326 122.619 33.2499 122.91 33.3814C123.019 33.4368 123.096 33.5302 123.144 33.6616C123.188 33.7931 123.184 33.9142 123.13 34.0249C122.873 34.568 122.622 35.1043 122.375 35.6371C122.128 36.1698 121.877 36.7061 121.62 37.2492L121.593 37.3046C121.136 38.3321 120.706 39.3077 120.303 40.2314C119.9 41.1551 119.554 41.9785 119.26 42.6981C118.969 43.4177 118.735 43.9885 118.559 44.4072C118.386 44.8258 118.298 45.0472 118.298 45.0645C118.298 45.1025 118.288 45.1198 118.271 45.1198C118.471 45.0437 118.664 44.9711 118.847 44.8949C119.03 44.8188 119.212 44.7358 119.395 44.6424C119.852 44.4175 120.286 44.1477 120.699 43.8294C121.109 43.5111 121.488 43.179 121.837 42.833C122.182 42.4871 122.49 42.155 122.754 41.8401C123.019 41.5219 123.242 41.252 123.425 41.0271C123.462 40.9891 123.493 40.951 123.52 40.9164C123.547 40.8784 123.577 40.8438 123.614 40.8057C123.706 40.7123 123.814 40.6569 123.943 40.6362C124.085 40.6223 124.194 40.6604 124.285 40.7538ZM117.621 42.404C118.078 41.8816 118.461 41.4008 118.772 40.9614C119.084 40.522 119.256 40.2556 119.294 40.1622C119.514 39.6571 119.747 39.1312 119.995 38.5777C120.242 38.0276 120.492 37.4603 120.75 36.8825C120.767 36.7718 120.794 36.63 120.831 36.4639C120.868 36.2944 120.885 36.1145 120.885 35.9173C120.885 35.7201 120.872 35.5264 120.845 35.3292C120.817 35.132 120.75 34.9694 120.638 34.8379C120.438 34.575 120.127 34.4469 119.707 34.4469C119.449 34.4469 119.111 34.5265 118.691 34.6857C118.271 34.8448 117.814 35.1043 117.32 35.471C116.825 35.8343 116.304 36.3013 115.755 36.8721C115.207 37.443 114.675 38.1384 114.164 38.9583C113.524 39.9858 113.104 40.9649 112.901 41.8989C112.735 42.7777 112.772 43.4385 113.009 43.8882C113.229 44.338 113.666 44.5594 114.326 44.5594C114.783 44.5594 115.284 44.376 115.833 44.0128C116.388 43.653 116.981 43.1167 117.621 42.404ZM115.345 48.0363C115.511 47.8668 115.67 47.6799 115.826 47.4758C115.982 47.2717 116.131 47.0538 116.28 46.8323C115.623 47.0365 115.047 47.2544 114.553 47.4758C114.113 47.6799 113.771 47.9186 113.524 48.192C113.276 48.4618 113.134 48.7005 113.097 48.9081C113.08 49.0188 113.08 49.0845 113.097 49.1053C113.134 49.1607 113.188 49.2125 113.263 49.261C113.337 49.3059 113.446 49.3129 113.591 49.2748C114.103 49.216 114.688 48.8043 115.345 48.0363Z" fill="#767676"/>
<path d="M133.228 40.6952C133.32 40.7886 133.37 40.8993 133.38 41.0307C133.391 41.1622 133.35 41.2729 133.259 41.3663C133.242 41.4044 133.038 41.6292 132.656 42.0375C132.273 42.4492 131.758 42.9058 131.118 43.4109C129.344 44.774 127.736 45.4556 126.293 45.4556C125.524 45.4556 124.945 45.3172 124.553 45.037C124.16 44.7567 123.872 44.4661 123.689 44.1686C123.34 43.5528 123.242 42.7813 123.388 41.8576C123.533 40.9339 123.926 39.9098 124.566 38.7889C125.46 37.1629 126.435 35.8379 127.488 34.8104C128.538 33.7828 129.53 33.1843 130.465 33.0183C131.179 32.9076 131.772 33.0459 132.246 33.4403C132.612 33.7586 132.812 34.1876 132.849 34.7308C132.866 35.2912 132.693 35.914 132.327 36.5955C131.962 37.277 131.43 37.9724 130.736 38.6817C129.967 39.4843 129.154 40.0724 128.294 40.4461C127.58 40.7643 126.896 40.9235 126.239 40.9235C125.911 40.9235 125.616 40.8958 125.362 40.8405C125.105 40.7851 124.895 40.7194 124.732 40.6433C124.641 40.8854 124.563 41.1138 124.498 41.3282C124.434 41.5427 124.383 41.7538 124.346 41.9579C124.238 42.7052 124.299 43.276 124.539 43.6669C124.83 44.2101 125.416 44.4799 126.293 44.4799C127.041 44.4799 127.786 44.2897 128.528 43.9057C129.27 43.5216 129.937 43.0996 130.529 42.6325C131.122 42.1655 131.606 41.7365 131.982 41.3421C132.358 40.9512 132.544 40.7436 132.544 40.7263C132.635 40.6329 132.744 40.581 132.873 40.5706C132.998 40.5602 133.116 40.6017 133.228 40.6952ZM125.382 39.2663C125.345 39.3597 125.301 39.4428 125.247 39.5189C125.193 39.595 125.145 39.678 125.108 39.7714C125.254 39.8095 125.423 39.8475 125.616 39.8821C125.809 39.9202 126.032 39.9375 126.286 39.9375C127.549 39.9202 128.809 39.2732 130.072 38.0036C130.658 37.4051 131.108 36.8238 131.43 36.253C131.748 35.6822 131.901 35.1944 131.884 34.7827C131.847 34.5405 131.765 34.3433 131.637 34.1945C131.379 33.9697 131.041 33.9039 130.621 33.9973C130.255 34.0527 129.862 34.2188 129.442 34.4886C129.022 34.7585 128.592 35.1113 128.152 35.5403C127.167 36.5125 126.242 37.7545 125.382 39.2663Z" fill="#767676"/>
<path d="M43.3225 65.2165C43.2615 65.2165 43.2006 65.1889 43.16 65.1335C43.0922 65.0401 43.1092 64.9086 43.2006 64.8394C44.5348 63.8155 45.9265 62.6808 47.457 61.3697C47.5451 61.2971 47.6737 61.3075 47.7449 61.3974C47.816 61.4874 47.8058 61.6188 47.7178 61.6915C46.1804 63.006 44.7819 64.1442 43.4444 65.175C43.4072 65.2027 43.3631 65.2165 43.3225 65.2165Z" fill="#767676"/>
<path d="M39.7498 68.123C39.6888 68.123 39.6313 68.0953 39.5906 68.0434C39.5195 67.9535 39.5365 67.822 39.6245 67.7494L40.5252 67.016C40.6133 66.9434 40.7419 66.9572 40.8131 67.0506C40.8842 67.1405 40.8706 67.272 40.7792 67.3447L39.8785 68.078C39.8378 68.1092 39.7938 68.123 39.7498 68.123Z" fill="#767676"/>
<path d="M39.6379 62.1793C39.5431 62.1793 39.4585 62.1101 39.4382 62.0132C39.4144 61.899 39.4856 61.7883 39.5973 61.7676C40.7825 61.5185 42.0422 61.2106 43.4508 60.83C43.5592 60.7989 43.6709 60.868 43.7014 60.9788C43.7319 61.0895 43.6642 61.2037 43.5558 61.2348C42.1437 61.6154 40.8739 61.9267 39.682 62.1758C39.665 62.1793 39.6515 62.1793 39.6379 62.1793Z" fill="#767676"/>
<path d="M36.4035 62.9646C36.3121 62.9646 36.2274 62.8988 36.2037 62.8055C36.1766 62.6948 36.2443 62.5806 36.3561 62.553L37.1721 62.3558C37.2805 62.3316 37.3923 62.3973 37.4193 62.5115C37.4464 62.6222 37.3787 62.7363 37.267 62.764L36.4509 62.9611C36.434 62.9646 36.417 62.9646 36.4035 62.9646Z" fill="#767676"/>
<path d="M105.322 62.9057C105.309 62.9057 105.295 62.9057 105.282 62.9023C103.853 62.6185 102.583 62.3314 101.398 62.0269C101.289 61.9992 101.222 61.885 101.249 61.7743C101.276 61.6636 101.387 61.5944 101.496 61.6221C102.674 61.9266 103.941 62.2103 105.359 62.494C105.471 62.5147 105.542 62.6255 105.522 62.7397C105.505 62.8365 105.417 62.9057 105.322 62.9057Z" fill="#767676"/>
<path d="M99.0211 61.4839C99.0076 61.4839 98.9906 61.4839 98.9771 61.4805L98.161 61.2971C98.0492 61.2728 97.9815 61.1621 98.0052 61.0479C98.0289 60.9371 98.1373 60.8645 98.249 60.8887L99.0651 61.0721C99.1769 61.0963 99.2446 61.2071 99.2209 61.3213C99.2006 61.4182 99.1159 61.4839 99.0211 61.4839Z" fill="#767676"/>
<path d="M58.5928 63.826C58.559 63.826 58.5217 63.8157 58.4913 63.7984C58.3931 63.7395 58.3592 63.6115 58.4168 63.5112L59.1922 62.148C59.2497 62.0477 59.375 62.0131 59.4732 62.0719C59.5714 62.1307 59.6053 62.2588 59.5477 62.3591L58.7723 63.7222C58.7317 63.788 58.6606 63.826 58.5928 63.826Z" fill="#767676"/>
<path d="M49.5803 77.7095C49.5431 77.7095 49.5024 77.6991 49.4686 77.6749C49.3738 77.6126 49.3501 77.4811 49.411 77.3842L57.1992 65.3761C57.2635 65.2792 57.3888 65.255 57.4836 65.3173C57.5784 65.3795 57.6021 65.511 57.5412 65.6079L49.753 77.616C49.7124 77.6783 49.648 77.7095 49.5803 77.7095Z" fill="#767676"/>
<path d="M61.4814 82.9819C61.4678 82.9819 61.4509 82.9819 61.4373 82.9785C61.3256 82.9542 61.2579 82.8435 61.2816 82.7294C62.2297 78.3531 63.3844 73.9663 64.5018 69.7249C65.2062 67.0541 65.9308 64.2934 66.5979 61.5638C66.625 61.4531 66.7367 61.3839 66.8451 61.4116C66.9534 61.4393 67.0212 61.5535 66.9941 61.6642C66.327 64.3972 65.599 67.1579 64.8946 69.8322C63.7772 74.0701 62.6259 78.4499 61.6778 82.8159C61.6608 82.9162 61.5762 82.9819 61.4814 82.9819Z" fill="#767676"/>
<path d="M44.6395 73.8454C44.5921 73.8454 44.5447 73.8281 44.5075 73.7935C44.4228 73.7174 44.4127 73.586 44.4838 73.4995L51.246 65.4319C51.3205 65.3454 51.4492 65.335 51.5338 65.4076C51.6185 65.4837 51.6286 65.6152 51.5575 65.7017L44.7953 73.7693C44.7547 73.8212 44.6971 73.8454 44.6395 73.8454Z" fill="#767676"/>
<path d="M55.6437 80.2248C55.62 80.2248 55.5963 80.2213 55.5726 80.2109C55.4676 80.1694 55.4135 80.0518 55.4507 79.9411C56.9508 75.8069 58.7387 71.7176 60.4657 67.7633C61.0176 66.5041 61.5662 65.2413 62.1113 63.9785C62.1554 63.8747 62.2773 63.8263 62.3822 63.8713C62.4872 63.9163 62.5312 64.0408 62.4872 64.1481C61.9454 65.4143 61.3935 66.6736 60.8415 67.9363C59.118 71.8837 57.3334 75.9695 55.8367 80.0898C55.8063 80.1729 55.7284 80.2248 55.6437 80.2248Z" fill="#767676"/>
<path d="M52.8502 63.7325C52.8027 63.7325 52.7587 63.7152 52.7181 63.684C52.63 63.6114 52.6199 63.4799 52.691 63.39L54.3435 61.3764C54.4146 61.2865 54.5466 61.2761 54.6313 61.3488C54.7193 61.4214 54.7295 61.5529 54.6584 61.6428L53.0059 63.6564C52.9653 63.7083 52.9077 63.7325 52.8502 63.7325Z" fill="#767676"/>
<path d="M55.6437 80.2248C55.62 80.2248 55.5963 80.2213 55.5726 80.2109C55.4676 80.1694 55.4135 80.0518 55.4507 79.9411C56.9508 75.8069 58.7387 71.7176 60.4657 67.7633C61.0176 66.5041 61.5662 65.2413 62.1113 63.9785C62.1554 63.8747 62.2773 63.8263 62.3822 63.8713C62.4872 63.9163 62.5312 64.0408 62.4872 64.1481C61.9454 65.4143 61.3935 66.6736 60.8415 67.9363C59.118 71.8837 57.3334 75.9695 55.8367 80.0898C55.8063 80.1729 55.7284 80.2248 55.6437 80.2248Z" fill="#767676"/>
<path d="M76.2529 84.6323C76.1513 84.6323 76.0633 84.5527 76.0498 84.4489C75.5757 80.3597 75.2371 76.1874 74.9086 72.1536C74.6276 68.7009 74.3364 65.1272 73.9639 61.6261C73.9503 61.5119 74.0316 61.4081 74.1433 61.3977C74.2551 61.3839 74.3567 61.4669 74.3702 61.5811C74.7427 65.0891 75.0339 68.6629 75.315 72.119C75.6434 76.1494 75.982 80.3182 76.4561 84.4005C76.4696 84.5146 76.3884 84.6184 76.2766 84.6323C76.2699 84.6323 76.2631 84.6323 76.2529 84.6323Z" fill="#767676"/>
<path d="M83.5032 83.3659C83.4118 83.3659 83.3271 83.3037 83.3034 83.2068C82.2131 78.7059 80.8857 74.1842 79.6023 69.8148C79.0232 67.8428 78.4239 65.8051 77.855 63.7917C77.8245 63.681 77.8855 63.5633 77.9938 63.5322C78.1022 63.501 78.2173 63.5633 78.2478 63.674C78.8167 65.684 79.416 67.7217 79.9917 69.6902C81.2751 74.0666 82.6059 78.5883 83.6962 83.103C83.7233 83.2137 83.6556 83.3279 83.5472 83.3555C83.5371 83.3625 83.5201 83.3659 83.5032 83.3659Z" fill="#767676"/>
<path d="M91.8841 79.9752C91.8096 79.9752 91.7385 79.9337 91.7012 79.8611C90.5161 77.4947 89.3309 75.08 88.1864 72.7447C86.5238 69.3544 84.807 65.8498 83.0564 62.4386C83.0056 62.3349 83.0428 62.2103 83.141 62.1584C83.2426 62.1065 83.3645 62.1446 83.4153 62.2449C85.1693 65.663 86.8861 69.1675 88.5487 72.5579C89.6933 74.8931 90.8784 77.3079 92.0602 79.6708C92.111 79.7746 92.0703 79.8991 91.9721 79.951C91.9484 79.9683 91.918 79.9752 91.8841 79.9752Z" fill="#767676"/>
<path d="M96.7148 64.653C96.664 64.653 96.6132 64.6357 96.576 64.5941L93.5724 61.6882C93.4911 61.6086 93.4878 61.4771 93.5656 61.3941C93.6435 61.311 93.7722 61.3076 93.8535 61.3872L96.857 64.2932C96.9383 64.3727 96.9417 64.5042 96.8638 64.5872C96.8232 64.6322 96.769 64.653 96.7148 64.653Z" fill="#767676"/>
<path d="M101.763 69.9979C101.709 69.9979 101.655 69.9771 101.618 69.9356L100.263 68.5032C100.185 68.4202 100.185 68.2887 100.266 68.2091C100.348 68.1295 100.476 68.133 100.554 68.2125L101.909 69.645C101.987 69.728 101.987 69.8595 101.905 69.9391C101.865 69.9806 101.814 69.9979 101.763 69.9979Z" fill="#767676"/>
<path d="M68.704 78.5774C68.6972 78.5774 68.6938 78.5774 68.6871 78.5774C68.5753 78.567 68.4907 78.4667 68.5008 78.3525C68.8699 73.6302 69.1984 69.4995 69.5099 65.7251C69.52 65.6109 69.6216 65.5313 69.73 65.5348C69.8417 65.5452 69.9264 65.6455 69.9162 65.7597C69.6081 69.5341 69.2762 73.6648 68.9072 78.3871C68.9004 78.4944 68.8123 78.5774 68.704 78.5774Z" fill="#767676"/>
<path d="M68.2245 84.677C68.2177 84.677 68.2143 84.677 68.2076 84.677C68.0958 84.6667 68.0112 84.5663 68.0213 84.4522L68.4514 79.263C68.4615 79.1488 68.5631 79.0657 68.6715 79.0727C68.7832 79.083 68.8679 79.1834 68.8577 79.2975L68.4277 84.4867C68.4209 84.594 68.3295 84.677 68.2245 84.677Z" fill="#767676"/>
<path d="M97.264 75.7441C97.1997 75.7441 97.1387 75.713 97.0981 75.6576C93.7052 70.8591 90.3427 66.1472 87.1021 61.6463C87.0344 61.5529 87.0547 61.4214 87.1461 61.3557C87.2376 61.2865 87.3662 61.3072 87.4306 61.4006C90.6678 65.9016 94.0302 70.617 97.4266 75.4154C97.4943 75.5089 97.474 75.6403 97.3792 75.706C97.3487 75.7303 97.3047 75.7441 97.264 75.7441Z" fill="#767676"/>
<path d="M91.5443 27.4625C91.4867 27.4625 91.4291 27.4383 91.3885 27.3898C91.314 27.3033 91.3275 27.1684 91.4122 27.0957L104.486 15.8002C104.574 15.7241 104.703 15.7379 104.774 15.8244C104.849 15.9109 104.835 16.0458 104.75 16.1185L91.6763 27.414C91.6391 27.4452 91.5917 27.4625 91.5443 27.4625Z" fill="#767676"/>
<path d="M84.2745 22.6362C84.2406 22.6362 84.2034 22.6258 84.1729 22.6085C84.0747 22.5497 84.0408 22.4217 84.0984 22.3214L84.8806 20.9514C84.9382 20.8511 85.0635 20.82 85.1617 20.8753C85.2599 20.9341 85.2938 21.0621 85.2362 21.1625L84.454 22.5324C84.4133 22.5982 84.3422 22.6362 84.2745 22.6362Z" fill="#767676"/>
<path d="M86.2795 19.3877C86.2423 19.3877 86.2017 19.3773 86.1678 19.3531C86.073 19.2909 86.0493 19.1594 86.1102 19.0625L93.8985 7.05405C93.9628 6.95718 94.0881 6.93297 94.1829 6.99524C94.2777 7.05752 94.3014 7.18899 94.2405 7.28586L86.4522 19.2943C86.4082 19.3531 86.3439 19.3877 86.2795 19.3877Z" fill="#767676"/>
<path d="M77.7893 19.9481C77.7723 19.9481 77.7554 19.9446 77.7385 19.9411C77.6301 19.9135 77.5624 19.7993 77.5895 19.6886C77.9586 18.1975 78.331 16.71 78.7035 15.2224C79.8007 10.846 80.9317 6.32442 81.9611 1.8547C81.9882 1.74399 82.0965 1.67134 82.2083 1.69902C82.3166 1.72669 82.3877 1.83739 82.3606 1.95156C81.3312 6.42474 80.1969 10.9533 79.0997 15.3296C78.7272 16.8172 78.3547 18.3082 77.9857 19.7959C77.9619 19.8858 77.8807 19.9481 77.7893 19.9481Z" fill="#767676"/>
<path d="M96.2523 14.5341C96.2049 14.5341 96.1575 14.5169 96.1203 14.4823C96.0356 14.4062 96.0255 14.2747 96.0966 14.1882L98.8529 10.8982C98.9274 10.8117 99.0561 10.8013 99.1408 10.874C99.2254 10.9501 99.2356 11.0815 99.1645 11.168L96.4081 14.458C96.3675 14.5099 96.3099 14.5341 96.2523 14.5341Z" fill="#767676"/>
<path d="M86.0918 9.54486C86.0681 9.54486 86.041 9.54141 86.0173 9.53103C85.9123 9.48952 85.8615 9.36842 85.9022 9.26118C86.1663 8.57966 86.4575 7.90505 86.7352 7.25121C87.1246 6.34136 87.4937 5.4834 87.8086 4.58739C87.8458 4.48014 87.9643 4.42133 88.0693 4.46285C88.1743 4.5009 88.2318 4.62199 88.1912 4.72924C87.8695 5.63909 87.4835 6.54547 87.1076 7.42072C86.83 8.06765 86.5422 8.7388 86.278 9.41686C86.2476 9.49643 86.1731 9.54486 86.0918 9.54486Z" fill="#767676"/>
<path d="M95.9126 27.7181C95.8381 27.7181 95.767 27.6766 95.7331 27.6074C95.6823 27.5036 95.7196 27.3791 95.8178 27.3272L104.812 22.508C104.913 22.4561 105.035 22.4942 105.086 22.5945C105.137 22.6983 105.099 22.8228 105.001 22.8747L96.0074 27.6939C95.9769 27.7112 95.9465 27.7181 95.9126 27.7181Z" fill="#767676"/>
<path d="M105.455 22.5913C105.381 22.5913 105.309 22.5498 105.276 22.4806C105.221 22.3768 105.262 22.2523 105.36 22.2004L107.585 21.0102C107.687 20.9583 107.808 20.9964 107.859 21.0967C107.913 21.2005 107.873 21.3251 107.775 21.377L105.55 22.5706C105.523 22.5844 105.489 22.5913 105.455 22.5913Z" fill="#767676"/>
<path d="M100.515 29.2163C100.43 29.2163 100.349 29.1609 100.322 29.0744C100.285 28.9637 100.342 28.8461 100.451 28.8081L107.975 26.1963C108.08 26.1617 108.198 26.217 108.235 26.3277C108.273 26.4384 108.215 26.5561 108.107 26.5941L100.583 29.2059C100.559 29.2128 100.539 29.2163 100.515 29.2163Z" fill="#767676"/>
<path d="M85.7203 27.5488C85.6729 27.5488 85.6288 27.5315 85.5882 27.5004C85.5002 27.4277 85.49 27.2962 85.5611 27.2063L93.346 17.7099C93.4205 17.62 93.5492 17.6096 93.6338 17.6822C93.7219 17.7549 93.732 17.8863 93.6609 17.9763L85.876 27.4727C85.8388 27.5211 85.7812 27.5488 85.7203 27.5488Z" fill="#767676"/>
<path d="M81.5513 20.8162C81.5242 20.8162 81.4972 20.8093 81.4701 20.7989C81.3651 20.7539 81.3211 20.6294 81.3651 20.5221C82.767 17.2564 84.0131 14.302 85.0967 11.2334C85.1339 11.1261 85.2524 11.0673 85.3574 11.1088C85.4624 11.1469 85.5199 11.268 85.4793 11.3752C84.3957 14.4542 83.1428 17.4155 81.7376 20.6882C81.7037 20.7712 81.6292 20.8162 81.5513 20.8162Z" fill="#767676"/>
<path d="M69.4571 22.1996C69.3555 22.1996 69.2674 22.1201 69.2539 22.0128C68.79 17.7541 68.3972 13.4123 68.0213 9.21578C67.7572 6.28205 67.483 3.24799 67.1884 0.265821C67.1782 0.151654 67.2595 0.0478758 67.3712 0.037497C67.4829 0.0271183 67.5845 0.110141 67.5947 0.224307C67.8927 3.20647 68.1636 6.244 68.4277 9.17773C68.8035 13.3708 69.1963 17.7091 69.6602 21.9644C69.6738 22.0786 69.5925 22.1823 69.4808 22.1962C69.474 22.1996 69.4672 22.1996 69.4571 22.1996Z" fill="#767676"/>
<path d="M65.9917 23.1413C65.9036 23.1413 65.819 23.079 65.7953 22.989L62.3718 10.4583C62.3414 10.3476 62.4057 10.2335 62.514 10.2023C62.6224 10.1712 62.7342 10.2369 62.7646 10.3476L66.1881 22.8783C66.2185 22.989 66.1542 23.1032 66.0458 23.1343C66.0255 23.1413 66.0086 23.1413 65.9917 23.1413Z" fill="#767676"/>
<path d="M61.6421 7.20621C61.554 7.20621 61.4694 7.14393 61.4457 7.05399L59.949 1.57062C59.9185 1.45992 59.9828 1.34576 60.0912 1.31462C60.1995 1.28349 60.3113 1.34921 60.3418 1.45992L61.8384 6.94328C61.8689 7.05398 61.8046 7.16817 61.6962 7.1993C61.6759 7.20276 61.659 7.20621 61.6421 7.20621Z" fill="#767676"/>
<path d="M62.0923 25.3106C62.0178 25.3106 61.9467 25.2691 61.9094 25.1964C58.293 17.9209 54.9136 11.3165 51.5816 5.00619C51.5274 4.90586 51.5646 4.77785 51.6628 4.7225C51.761 4.66715 51.8863 4.7052 51.9405 4.80553C55.2725 11.1193 58.6519 17.7271 62.2717 25.0062C62.3225 25.1099 62.2819 25.2345 62.1837 25.2864C62.1532 25.3037 62.1228 25.3106 62.0923 25.3106Z" fill="#767676"/>
<path d="M54.2606 27.5244C54.2098 27.5244 54.159 27.5071 54.1218 27.4656L46.7941 20.3805C46.7128 20.301 46.7094 20.1695 46.7873 20.0865C46.8652 20.0034 46.9939 20 47.0751 20.0795L54.4028 27.1646C54.4841 27.2442 54.4875 27.3757 54.4096 27.4587C54.369 27.5002 54.3148 27.5244 54.2606 27.5244Z" fill="#767676"/>
<path d="M44.6049 18.0695C44.5507 18.0695 44.4965 18.0487 44.4593 18.0072L40.1521 13.4439C40.0742 13.3609 40.0776 13.2294 40.1588 13.1499C40.2401 13.0703 40.3688 13.0738 40.4467 13.1568L44.7539 17.72C44.8318 17.8031 44.8284 17.9345 44.7471 18.0141C44.7065 18.0487 44.6557 18.0695 44.6049 18.0695Z" fill="#767676"/>
<path d="M40.647 27.2719C40.6165 27.2719 40.5861 27.2649 40.559 27.2511L33.282 23.6878C33.1804 23.6394 33.1364 23.5148 33.1872 23.4076C33.2346 23.3038 33.3599 23.2588 33.4615 23.3107L40.7384 26.874C40.84 26.9225 40.884 27.047 40.8333 27.1543C40.7994 27.2269 40.7249 27.2719 40.647 27.2719Z" fill="#767676"/>
<path d="M73.7631 20.5294C73.7597 20.5294 73.753 20.5294 73.7496 20.5294C73.6378 20.5225 73.5532 20.4221 73.5599 20.308C73.5938 19.7787 73.6277 19.2528 73.6581 18.7235C73.841 15.7587 74.0306 12.6969 74.3862 9.69402C74.3997 9.57986 74.5013 9.5003 74.613 9.51067C74.7248 9.52451 74.806 9.62829 74.7925 9.74246C74.437 12.7315 74.2473 15.7898 74.0645 18.7477C74.0306 19.277 74.0001 19.8063 73.9663 20.3322C73.9595 20.4429 73.8681 20.5294 73.7631 20.5294Z" fill="#767676"/>
<path d="M74.9926 5.60477C74.9858 5.60477 74.9824 5.60477 74.9756 5.60477C74.8639 5.59439 74.7792 5.49407 74.7894 5.3799L75.2195 0.190387C75.2296 0.0762173 75.3346 -0.00335112 75.4396 0.000108562C75.5513 0.0104876 75.6359 0.110806 75.6258 0.224975L75.1957 5.41449C75.1856 5.52174 75.0975 5.60477 74.9926 5.60477Z" fill="#767676"/>
<path d="M47.5479 10.9287C47.4869 10.9287 47.426 10.9011 47.3853 10.8457C46.83 10.0985 46.2713 9.31664 45.7295 8.55901L45.4112 8.11618C45.3435 8.02278 45.3638 7.89133 45.4552 7.8256C45.5466 7.75987 45.6753 7.77717 45.7396 7.87057L46.058 8.31338C46.5997 9.06755 47.1551 9.8494 47.7104 10.5932C47.7781 10.6866 47.7612 10.8146 47.6698 10.8872C47.6359 10.9149 47.5919 10.9287 47.5479 10.9287Z" fill="#767676"/>
<path d="M59.0128 26.8257C58.9518 26.8257 58.8909 26.7981 58.8502 26.7427C56.5679 23.643 54.2924 20.4602 52.0914 17.3812L50.5337 15.2017C50.466 15.1083 50.4863 14.9768 50.5778 14.9111C50.6692 14.8419 50.7979 14.8626 50.8622 14.9561L52.4198 17.1356C54.6209 20.2145 56.893 23.3939 59.1753 26.4936C59.243 26.587 59.2261 26.7185 59.1347 26.7877C59.0974 26.8119 59.0534 26.8257 59.0128 26.8257Z" fill="#767676"/>
<path d="M47.6696 27.4763C47.6289 27.4763 47.5883 27.466 47.5544 27.4383L41.8859 23.4421C41.7945 23.3764 41.7708 23.2449 41.8351 23.1515C41.8995 23.0581 42.0282 23.0339 42.1196 23.0996L47.7881 27.0957C47.8795 27.1615 47.9032 27.293 47.8389 27.3864C47.7982 27.4452 47.7339 27.4763 47.6696 27.4763Z" fill="#767676"/>
<path d="M40.2979 22.2589C40.2573 22.2589 40.2167 22.2486 40.1828 22.2209L36.8 19.8339C36.7086 19.7682 36.6849 19.6368 36.7492 19.5433C36.8135 19.4499 36.9422 19.4257 37.0337 19.4914L40.4165 21.8784C40.5079 21.9442 40.5316 22.0756 40.4673 22.169C40.4266 22.2278 40.3623 22.2589 40.2979 22.2589Z" fill="#767676"/>
<path d="M35.7529 54.8883V55.7602C35.7529 56.4106 35.2382 56.9434 34.6016 56.9434H33.2268C33.1252 56.9434 33.0474 56.8604 33.0474 56.7601V51.9578C33.0474 51.854 33.1252 51.7744 33.2268 51.7744H34.4865C35.1231 51.7744 35.6378 52.3072 35.6378 52.9577V53.4386C35.6378 53.6808 35.5735 53.9022 35.4414 54.0891C35.6378 54.2967 35.7529 54.5804 35.7529 54.8883ZM33.9176 53.7154H34.4899C34.6423 53.7154 34.7709 53.5839 34.7709 53.4282V52.9196C34.7709 52.757 34.6423 52.6255 34.4899 52.6255H33.9176V53.7154ZM34.8861 54.8468C34.8861 54.6842 34.7574 54.5527 34.605 54.5527H33.9176V56.0889H34.605C34.7574 56.0889 34.8861 55.9574 34.8861 55.7844V54.8468Z" fill="#767676"/>
<path d="M37.4239 52.6134V53.7136H38.0605C38.1621 53.7136 38.24 53.7932 38.24 53.897V54.3537C38.24 54.4575 38.1621 54.537 38.0605 54.537H37.4239V56.0973H38.4296C38.5312 56.0973 38.6091 56.1769 38.6091 56.2807V56.7547C38.6091 56.8585 38.5312 56.938 38.4296 56.938H36.7298C36.6282 56.938 36.5503 56.855 36.5503 56.7547V51.9527C36.5503 51.8489 36.6282 51.7693 36.7298 51.7693H38.4296C38.5312 51.7693 38.6091 51.8523 38.6091 51.9527V52.4266C38.6091 52.5304 38.5312 52.61 38.4296 52.61H37.4239V52.6134Z" fill="#767676"/>
<path d="M41.1122 53.077V52.9213C41.1122 52.7587 40.9835 52.6342 40.8243 52.6342H40.4925C40.3333 52.6342 40.2047 52.7587 40.2047 52.9213V53.3711C40.2047 53.5337 40.3333 53.6582 40.4925 53.6651H40.8243C41.4677 53.6651 41.9824 54.191 41.9824 54.8483V55.7581C41.9824 56.4085 41.4609 56.9413 40.8243 56.9413H40.4925C39.8559 56.9413 39.3344 56.4085 39.3344 55.7581V55.1527C39.3344 55.0489 39.4123 54.9694 39.5139 54.9694H40.0184C40.12 54.9694 40.1979 55.0524 40.1979 55.1527V55.7962C40.1979 55.9588 40.3266 56.0902 40.4857 56.0902H40.8176C40.9767 56.0902 41.1054 55.9588 41.1054 55.7962V54.8344C41.1054 54.6718 40.9767 54.5473 40.8176 54.5473H40.4857C39.8491 54.5404 39.3276 54.0214 39.3276 53.3711V52.949C39.3276 52.2986 39.8491 51.7659 40.4857 51.7659H40.8176C41.4609 51.7659 41.9756 52.2986 41.9756 52.949V53.0736C41.9756 53.1773 41.8944 53.2569 41.7962 53.2569H41.2916C41.19 53.2638 41.1122 53.1808 41.1122 53.077Z" fill="#767676"/>
<path d="M45.0613 51.9557V52.4435C45.0613 52.5473 44.9733 52.6269 44.8819 52.6269H44.2588V56.7576C44.2588 56.8614 44.1809 56.941 44.0793 56.941H43.5714C43.4766 56.941 43.3919 56.858 43.3919 56.7576V52.6269H42.7757C42.6741 52.6269 42.5962 52.5438 42.5962 52.4435V51.9557C42.5962 51.8519 42.6741 51.7723 42.7757 51.7723H44.8785C44.9733 51.7689 45.0613 51.8519 45.0613 51.9557Z" fill="#767676"/>
<path d="M49.8043 56.0904H50.0921C50.1801 56.0904 50.2648 56.1734 50.2648 56.2737V56.7546C50.2648 56.8584 50.1767 56.9379 50.0751 56.9379H48.6428C48.0773 56.9379 47.6235 56.4709 47.6235 55.9035V52.8072C47.6235 52.2294 48.0807 51.7659 48.6428 51.7659H49.2489C49.8144 51.7659 50.2682 52.2329 50.2682 52.8072V55.3569C50.2749 55.6856 50.0785 55.9658 49.8043 56.0904ZM49.4047 52.8107C49.4047 52.7069 49.3166 52.6204 49.215 52.6204H48.68C48.5784 52.6204 48.4938 52.7103 48.4938 52.8107V55.907C48.4938 56.0039 48.5818 56.0904 48.68 56.0904H49.4047V52.8107Z" fill="#767676"/>
<path d="M53.1032 51.7693H53.6078C53.7094 51.7693 53.7872 51.8592 53.7872 51.963V55.9969C53.7872 56.5124 53.3673 56.9414 52.8628 56.9414H52.067C51.5591 56.9414 51.1426 56.5124 51.1426 55.9969V51.963C51.1426 51.8592 51.2205 51.7693 51.322 51.7693H51.83C51.9316 51.7693 52.0095 51.8592 52.0095 51.963V55.907C52.0095 56.0107 52.0975 56.0903 52.1991 56.0903H52.7341C52.8357 56.0903 52.9237 56.0107 52.9237 55.907V51.963C52.9204 51.8592 53.0016 51.7693 53.1032 51.7693Z" fill="#767676"/>
<path d="M57.2178 56.1076V56.758C57.2178 56.8618 57.1365 56.9414 57.0383 56.9414H56.5236C56.4288 56.9414 56.3509 56.8583 56.3509 56.758V56.0869H55.3825V56.758C55.3825 56.8618 55.3046 56.9414 55.203 56.9414H54.6951C54.5935 56.9414 54.5156 56.8583 54.5156 56.758V56.1076C54.5156 56.0765 54.5156 56.0557 54.5224 56.0107L55.1455 51.9319C55.159 51.835 55.2403 51.7693 55.3351 51.7693H56.4187C56.5135 51.7693 56.5846 51.8523 56.5981 51.9319L57.211 56.0107C57.2178 56.0557 57.2178 56.0765 57.2178 56.1076ZM56.2494 55.2496L55.8667 52.6411L55.4841 55.2496H56.2494Z" fill="#767676"/>
<path d="M58.8088 51.9557V56.1003H59.8212C59.9228 56.1003 60.0007 56.1799 60.0007 56.2837V56.7576C60.0007 56.8614 59.9228 56.941 59.8212 56.941H58.1214C58.0198 56.941 57.9419 56.858 57.9419 56.7576V51.9557C57.9419 51.8519 58.0198 51.7723 58.1214 51.7723H58.6293C58.7309 51.7689 58.8088 51.8519 58.8088 51.9557Z" fill="#767676"/>
<path d="M61.3764 56.9414H60.8719C60.7703 56.9414 60.6924 56.8583 60.6924 56.758V51.963C60.6924 51.8592 60.7737 51.7693 60.8719 51.7693H61.3764C61.478 51.7693 61.5559 51.8592 61.5559 51.963V56.758C61.5592 56.8618 61.478 56.9414 61.3764 56.9414Z" fill="#767676"/>
<path d="M64.7103 51.9557V52.4435C64.7103 52.5473 64.6222 52.6269 64.5308 52.6269H63.9077V56.7576C63.9077 56.8614 63.8298 56.941 63.7283 56.941H63.2203C63.1255 56.941 63.0409 56.858 63.0409 56.7576V52.6269H62.4246C62.323 52.6269 62.2451 52.5438 62.2451 52.4435V51.9557C62.2451 51.8519 62.323 51.7723 62.4246 51.7723H64.5274C64.6222 51.7689 64.7103 51.8519 64.7103 51.9557Z" fill="#767676"/>
<path d="M67.3424 51.7693H67.8469C67.9485 51.7693 68.0264 51.8523 68.0264 51.9527V52.6827C68.0264 52.7622 68.0129 52.8453 67.9756 52.9179L67.0579 54.845V56.7514C67.0579 56.8552 66.9767 56.9347 66.8785 56.9347H66.3739C66.2723 56.9347 66.1945 56.8517 66.1945 56.7514V54.845L65.27 52.9179C65.2396 52.8453 65.2192 52.7622 65.2192 52.6827V51.9527C65.2192 51.8489 65.2971 51.7693 65.3987 51.7693H65.9066C66.0082 51.7693 66.0861 51.8523 66.0861 51.9527V52.5131C66.0861 52.572 66.0997 52.6308 66.1301 52.6827L66.6279 53.731L67.1257 52.6827C67.146 52.6308 67.1629 52.572 67.1629 52.5131V51.9527C67.1629 51.8523 67.2408 51.7693 67.3424 51.7693Z" fill="#767676"/>
<path d="M72.5368 54.3572C72.5368 54.9246 72.0898 55.3848 71.5311 55.3848C70.9825 55.3848 70.5254 54.9281 70.5254 54.3572C70.5254 53.7967 70.9825 53.3296 71.5311 53.3296C72.0864 53.3296 72.5368 53.7932 72.5368 54.3572Z" fill="#767676"/>
<path d="M77.9175 54.886V55.7578C77.9175 56.4082 77.4028 56.9409 76.7662 56.9409H75.3914C75.2898 56.9409 75.2119 56.8579 75.2119 56.7576V51.9558C75.2119 51.852 75.2932 51.7725 75.3914 51.7725H76.651C77.2876 51.7725 77.8023 52.3052 77.8023 52.9556V53.4365C77.8023 53.6786 77.738 53.9 77.6059 54.0869C77.799 54.2944 77.9175 54.5781 77.9175 54.886ZM76.0788 53.7132H76.651C76.8034 53.7132 76.9321 53.5818 76.9321 53.4261V52.9176C76.9321 52.755 76.8034 52.6235 76.651 52.6235H76.0788V53.7132ZM77.0472 54.8445C77.0472 54.6819 76.9186 54.5504 76.7662 54.5504H76.0788V56.0865H76.7662C76.9186 56.0865 77.0472 55.955 77.0472 55.782V54.8445Z" fill="#767676"/>
<path d="M79.587 52.6134V53.7136H80.2236C80.3252 53.7136 80.4031 53.7932 80.4031 53.897V54.3537C80.4031 54.4575 80.3252 54.537 80.2236 54.537H79.587V56.0973H80.5927C80.6943 56.0973 80.7722 56.1769 80.7722 56.2807V56.7547C80.7722 56.8585 80.6943 56.938 80.5927 56.938H78.8928C78.7913 56.938 78.7134 56.855 78.7134 56.7547V51.9527C78.7134 51.8489 78.7913 51.7693 78.8928 51.7693H80.5927C80.6943 51.7693 80.7722 51.8523 80.7722 51.9527V52.4266C80.7722 52.5304 80.6943 52.61 80.5927 52.61H79.587V52.6134Z" fill="#767676"/>
<path d="M83.2748 53.077V52.9213C83.2748 52.7587 83.1461 52.6342 82.9869 52.6342H82.6551C82.4959 52.6342 82.3673 52.7587 82.3673 52.9213V53.3711C82.3673 53.5337 82.4959 53.6582 82.6551 53.6651H82.9869C83.6303 53.6651 84.145 54.191 84.145 54.8483V55.7581C84.145 56.4085 83.6235 56.9413 82.9869 56.9413H82.6551C82.0185 56.9413 81.497 56.4085 81.497 55.7581V55.1527C81.497 55.0489 81.5749 54.9694 81.6765 54.9694H82.181C82.2826 54.9694 82.3605 55.0524 82.3605 55.1527V55.7962C82.3605 55.9588 82.4892 56.0902 82.6483 56.0902H82.9802C83.1393 56.0902 83.268 55.9588 83.268 55.7962V54.8344C83.268 54.6718 83.1393 54.5473 82.9802 54.5473H82.6483C82.0117 54.5404 81.4902 54.0214 81.4902 53.3711V52.949C81.4902 52.2986 82.0117 51.7659 82.6483 51.7659H82.9802C83.6235 51.7659 84.1382 52.2986 84.1382 52.949V53.0736C84.1382 53.1773 84.057 53.2569 83.9588 53.2569H83.4542C83.356 53.2638 83.2748 53.1808 83.2748 53.077Z" fill="#767676"/>
<path d="M87.222 51.9557V52.4435C87.222 52.5473 87.134 52.6269 87.0426 52.6269H86.4195V56.7576C86.4195 56.8614 86.3416 56.941 86.24 56.941H85.7321C85.6373 56.941 85.5526 56.858 85.5526 56.7576V52.6269H84.9363C84.8347 52.6269 84.7568 52.5438 84.7568 52.4435V51.9557C84.7568 51.8519 84.8347 51.7723 84.9363 51.7723H87.0392C87.1374 51.7689 87.222 51.8519 87.222 51.9557Z" fill="#767676"/>
<path d="M92.3655 52.9522V53.4261C92.3655 54.0765 91.8441 54.6093 91.2142 54.6093H90.6589V56.7576C90.6589 56.8614 90.5776 56.9409 90.4794 56.9409H89.9749C89.8733 56.9409 89.7954 56.8579 89.7954 56.7576V51.9558C89.7954 51.8521 89.8767 51.7725 89.9749 51.7725H91.2176C91.8441 51.769 92.3655 52.3018 92.3655 52.9522ZM91.4987 52.9141C91.4987 52.7515 91.3768 52.6201 91.2176 52.6201H90.6623V53.7132H91.2176C91.3768 53.7132 91.4987 53.5818 91.4987 53.4261V52.9141Z" fill="#767676"/>
<path d="M94.945 54.5262L95.5951 55.7682C95.6324 55.8408 95.6459 55.9308 95.6459 56.0103V56.7507C95.6459 56.8545 95.5748 56.934 95.4732 56.934H94.9687C94.8671 56.934 94.7791 56.8545 94.7791 56.7507V56.2352C94.7791 56.1522 94.7655 56.0726 94.7283 55.9827L93.9562 54.5193V56.7576C93.9562 56.8614 93.875 56.9409 93.7768 56.9409H93.2722C93.1774 56.9409 93.0928 56.8579 93.0928 56.7576V51.9558C93.0928 51.852 93.1808 51.7725 93.2722 51.7725H94.5217C95.1583 51.7725 95.6696 52.3052 95.6696 52.9556V53.4226C95.6696 53.9208 95.3649 54.3463 94.945 54.5262ZM94.5183 52.62H93.9528V53.7202H94.5183C94.6707 53.7202 94.7994 53.5887 94.7994 53.4157V52.9072C94.8028 52.7446 94.6707 52.62 94.5183 52.62Z" fill="#767676"/>
<path d="M97.079 56.9414H96.5745C96.4729 56.9414 96.395 56.8583 96.395 56.758V51.963C96.395 51.8592 96.4763 51.7693 96.5745 51.7693H97.079C97.1806 51.7693 97.2585 51.8592 97.2585 51.963V56.758C97.2619 56.8618 97.1806 56.9414 97.079 56.9414Z" fill="#767676"/>
<path d="M100.014 54.5474H100.519C100.62 54.5474 100.698 54.6374 100.698 54.7377V55.9936C100.698 56.5091 100.285 56.938 99.7739 56.938H98.9781C98.4702 56.938 98.0537 56.5091 98.0537 55.9936V52.7138C98.0537 52.1879 98.4668 51.7693 98.9781 51.7693H99.7739C100.289 51.7693 100.698 52.1914 100.698 52.7138V53.5268C100.698 53.6306 100.617 53.7206 100.519 53.7206H100.014C99.9127 53.7206 99.8348 53.6306 99.8348 53.5268V52.7968C99.8348 52.693 99.7468 52.6134 99.6554 52.6134H99.1136C99.012 52.6134 98.924 52.6965 98.924 52.7968V55.9001C98.924 56.0039 99.012 56.0835 99.1136 56.0835H99.6554C99.7502 56.0835 99.8348 56.0039 99.8348 55.9001V54.7412C99.8348 54.6374 99.9161 54.5474 100.014 54.5474Z" fill="#767676"/>
<path d="M102.376 52.6134V53.7136H103.012C103.114 53.7136 103.192 53.7932 103.192 53.897V54.3537C103.192 54.4575 103.114 54.537 103.012 54.537H102.376V56.0973H103.381C103.483 56.0973 103.561 56.1769 103.561 56.2807V56.7547C103.561 56.8585 103.483 56.938 103.381 56.938H101.681C101.58 56.938 101.502 56.855 101.502 56.7547V51.9527C101.502 51.8489 101.58 51.7693 101.681 51.7693H103.381C103.483 51.7693 103.561 51.8523 103.561 51.9527V52.4266C103.561 52.5304 103.483 52.61 103.381 52.61H102.376V52.6134Z" fill="#767676"/>
<path d="M106.256 52.5718C111.481 52.5718 116.706 52.5718 121.931 52.5718C122.591 52.5718 122.591 51.5273 121.931 51.5273C116.706 51.5273 111.481 51.5273 106.256 51.5273C105.599 51.5273 105.599 52.5718 106.256 52.5718Z" fill="#767676"/>
<path d="M106.256 54.8001C109.663 54.8001 113.069 54.8001 116.479 54.8001C117.14 54.8001 117.14 53.7554 116.479 53.7554C113.073 53.7554 109.666 53.7554 106.256 53.7554C105.599 53.7554 105.599 54.8001 106.256 54.8001Z" fill="#767676"/>
<path d="M106.256 56.8895C107.8 56.8895 109.345 56.8895 110.889 56.8895C111.549 56.8895 111.549 55.8445 110.889 55.8445C109.345 55.8445 107.8 55.8445 106.256 55.8445C105.599 55.8445 105.599 56.8895 106.256 56.8895Z" fill="#767676"/>
<path d="M29.7958 51.5273C24.571 51.5273 19.3461 51.5273 14.1212 51.5273C13.4609 51.5273 13.4609 52.5718 14.1212 52.5718C19.3461 52.5718 24.571 52.5718 29.7958 52.5718C30.4562 52.5718 30.4562 51.5273 29.7958 51.5273Z" fill="#767676"/>
<path d="M29.7972 53.7554C26.3907 53.7554 22.9842 53.7554 19.5743 53.7554C18.914 53.7554 18.914 54.8001 19.5743 54.8001C22.9808 54.8001 26.3873 54.8001 29.7972 54.8001C30.4575 54.8001 30.4575 53.7554 29.7972 53.7554Z" fill="#767676"/>
<path d="M29.7965 55.8445C28.2524 55.8445 26.7083 55.8445 25.1642 55.8445C24.5039 55.8445 24.5039 56.8895 25.1642 56.8895C26.7083 56.8895 28.2524 56.8895 29.7965 56.8895C30.4568 56.8895 30.4568 55.8445 29.7965 55.8445Z" fill="#767676"/>
</svg>
