<svg width="129" height="90" viewBox="0 0 129 90" fill="none" xmlns="http://www.w3.org/2000/svg">
<path d="M56.2658 79.3145C56.2951 80.8859 54.4679 82.5432 52.5234 82.633C52.7834 83.8489 53.102 85.0349 52.582 86.277C51.8276 88.2336 49.7989 89.2999 47.7959 89.0343C44.5771 88.589 43.7055 84.0547 46.8108 82.6929C47.9131 82.2177 49.5646 83.3139 48.3488 84.4101C47.6824 85.0311 46.5801 85.2107 47.0708 86.5127C47.3601 87.2235 48.1438 87.3732 48.7809 87.2534C49.8832 87.0477 50.491 86.0974 50.5496 85.0311C50.6961 84.1108 50.3482 83.1643 50.1139 82.214C48.6638 81.5032 47.5615 79.872 47.968 78.2146C48.2866 76.763 50.0553 77.3541 49.3595 78.2745C49.0409 78.8955 49.506 79.7859 50.026 80.2611C50.1725 79.5802 50.4032 78.9292 50.7803 78.3044C52.2341 76.026 56.2072 75.9063 56.2658 79.3145ZM54.0907 78.2483C52.8127 78.0126 52.2927 79.7298 52.2634 80.6502C52.2634 80.71 52.2634 80.7699 52.2634 80.8297C52.6992 80.7699 53.1349 80.624 53.4828 80.3845C54.38 79.7597 55.0501 78.5738 54.0907 78.2483Z" fill="#767676"/>
<path d="M60.0675 79.0487C59.7782 79.4041 59.2252 80.115 58.6173 81.0054C58.8187 81.0054 58.9945 81.0354 59.0824 81.0354C59.5475 81.0653 59.0531 82.3111 58.5038 82.3111C58.3024 82.3111 58.0095 82.2812 57.7202 82.2812C56.358 84.2679 54.9958 86.4004 55.1972 86.58C55.5743 86.9953 57.4016 84.8927 58.156 84.0022C58.6796 83.4111 59.3461 84.092 58.7931 84.7131C57.4895 86.1049 55.545 88.8323 53.9777 88.5367C52.8169 88.3572 52.3519 87.0252 53.3113 85.6933C53.7177 85.1022 54.5893 83.6767 55.4864 82.2251C55.34 82.2251 55.1971 82.2251 55.0507 82.2251C54.527 82.2251 55.08 80.9493 55.6036 80.9194C55.7501 80.9194 56.0101 80.9194 56.2994 80.9194C57.2258 79.4378 58.0388 78.162 58.3024 77.9263C58.7675 77.4811 59.3168 77.1257 59.7818 77.2454C60.2395 77.3876 60.9353 78.0423 60.0675 79.0487Z" fill="#767676"/>
<path d="M66.2443 84.7394C64.9663 86.1312 63.0548 88.8287 61.4876 88.563C60.909 88.4433 60.6746 87.912 60.7332 87.2573C60.2388 87.8185 59.5724 88.3236 58.8473 88.3236C56.4415 88.3236 57.1372 85.2108 58.558 83.5235C59.9789 81.8324 61.7768 80.6501 62.9084 81.1215C63.2855 81.2712 63.5162 81.5668 63.6334 81.8922C63.692 81.8025 63.7213 81.7426 63.7799 81.6865C64.245 81.2413 64.8235 80.8858 65.2593 81.0355C65.7536 81.1552 66.4201 81.8361 65.5779 82.8425C64.5928 83.9687 62.7363 86.221 63.0255 86.5165C63.2855 86.7822 64.9114 84.8853 65.6658 83.9986C66.1857 83.4037 66.7936 84.1445 66.2443 84.7394ZM61.3997 84.7394C62.3005 83.6133 62.8498 82.6667 62.6484 82.4871C62.4763 82.3075 61.5754 83.1381 60.5904 84.354C59.6346 85.54 59.1403 86.6961 59.2574 86.8121C59.5138 87.0777 60.4988 85.8655 61.3997 84.7394Z" fill="#767676"/>
<path d="M71.3502 79.0487C71.0609 79.4041 70.508 80.115 69.9001 81.0054C70.1015 81.0054 70.2773 81.0354 70.3651 81.0354C70.8302 81.0653 70.3358 82.3111 69.7866 82.3111C69.5852 82.3111 69.2922 82.2812 69.0029 82.2812C67.6407 84.2679 66.2785 86.4004 66.4799 86.58C66.8571 86.9953 68.6844 84.8927 69.4387 84.0022C69.9624 83.4111 70.6288 84.092 70.0759 84.7131C68.7722 86.1049 66.8278 88.8323 65.2605 88.5367C64.0996 88.3572 63.6346 87.0252 64.594 85.6933C65.0005 85.1022 65.872 83.6767 66.7692 82.2251C66.6227 82.2251 66.4799 82.2251 66.3334 82.2251C65.8097 82.2251 66.3627 80.9493 66.8863 80.9194C67.0328 80.9194 67.2928 80.9194 67.5821 80.9194C68.5086 79.4378 69.3215 78.162 69.5852 77.9263C70.0502 77.4811 70.5995 77.1257 71.0646 77.2454C71.5223 77.3876 72.2181 78.0423 71.3502 79.0487Z" fill="#767676"/>
<path d="M73.4942 84.7395C72.1869 86.1312 70.3047 88.8287 68.7081 88.5631C67.5766 88.3573 67.4594 87.0217 68.3895 85.6898C69.3746 84.3279 70.4768 82.2216 71.0005 81.6903C71.4655 81.2451 72.0441 80.8897 72.4799 81.0393C72.9743 81.1591 73.67 81.84 72.7985 82.8464C71.8134 83.9725 69.9568 86.2248 70.2461 86.5203C70.5061 86.786 72.1613 84.8891 72.9157 84.0025C73.4064 83.4038 74.0435 84.1446 73.4942 84.7395ZM73.5528 80.235C72.1613 80.235 73.5235 77.0923 75.1201 77.4477C76.5959 77.7732 74.6551 80.5904 73.5528 80.235Z" fill="#767676"/>
<path d="M80.4567 84.739C80.021 85.1843 79.5596 85.7754 79.0652 86.3403C77.963 87.5562 77.6151 88.0014 76.5422 87.7919C76.3664 87.762 76.2529 87.7021 76.1357 87.6124C75.4399 88.1174 74.7442 88.3831 74.1619 88.3831C72.1882 88.3831 71.551 86.3366 72.7411 84.2938C73.9312 82.2211 75.872 80.8855 77.2672 80.8855C78.7466 80.8855 79.8782 82.1314 78.7173 84.4697C78.3402 85.2104 77.9044 85.8614 77.4393 86.4264C77.6407 86.3366 77.9886 86.0709 78.3402 85.6856C78.8895 85.1207 79.4717 84.4397 79.8489 83.9945C80.3689 83.4034 81.006 84.1442 80.4567 84.739ZM77.1793 82.6327C76.3371 82.6327 73.4955 86.7219 74.3084 86.7219C74.9163 86.7219 78.0216 82.6327 77.1793 82.6327Z" fill="#767676"/>
<path d="M87.2408 84.7393C85.9371 86.131 84.0513 88.8284 82.4547 88.5628C80.8581 88.2673 81.2646 86.6959 82.224 85.3641C83.1504 84.0322 84.3405 83.0221 84.1391 82.7564C83.9634 82.4908 82.224 84.2978 81.6747 84.8889C81.0375 85.8654 80.3967 86.8157 79.9939 87.3768C79.386 88.2373 79.1224 88.5628 78.4266 88.5628C77.3537 88.5628 77.643 87.1112 78.9502 85.3641C79.906 84.0322 80.7482 82.6367 80.8947 82.3412C81.3305 81.4507 81.4733 81.0093 82.0848 81.0093C82.5499 81.0093 83.1284 81.3647 83.2163 81.9857C83.9121 81.4245 84.6372 81.0093 85.3622 81.0093C86.058 81.0093 87.043 81.8398 86.1166 83.2016C85.1901 84.5634 83.7107 86.2245 84 86.5201C84.26 86.7857 85.8859 84.8889 86.6402 84.0023C87.1529 83.4037 87.7937 84.1444 87.2408 84.7393Z" fill="#767676"/>
<path d="M12.8141 42.085L13.8101 43.9781C15.1797 46.5821 14.2203 49.8558 11.7009 51.2401L9.4708 52.4672L14.0042 61.0723C14.2239 61.4876 14.0738 61.9852 13.671 62.2097L11.646 63.3246C11.2395 63.5491 10.7524 63.3957 10.5327 62.9841L0.403939 43.7649C0.184226 43.3496 0.334354 42.852 0.737162 42.6275L5.71369 39.8889C8.23673 38.5008 11.4446 39.4848 12.8141 42.085ZM9.26207 43.8472C8.91785 43.1962 8.14884 42.9343 7.51167 43.286L5.28159 44.5131L7.58858 48.8905L9.81868 47.6633C10.4559 47.3117 10.6682 46.511 10.3387 45.89L9.26207 43.8472Z" fill="#767676"/>
<path d="M19.4707 37.8126L21.1625 42.5079L23.876 41.4865C24.3081 41.3256 24.7731 41.5426 24.9306 41.9841L25.6337 43.937C25.7911 44.3785 25.5788 44.8537 25.1467 45.0145L22.4332 46.0359L24.8281 52.6841L29.1161 51.0716C29.5483 50.9108 30.0133 51.1278 30.1708 51.5692L30.8958 53.5858C31.0533 54.0273 30.8409 54.5024 30.4088 54.6633L23.1583 57.3907C22.7262 57.5515 22.2611 57.3345 22.1036 56.8931L14.7213 36.4096C14.5638 35.9681 14.7762 35.493 15.2083 35.3321L22.4552 32.6047C22.8873 32.4438 23.3523 32.6608 23.5098 33.1023L24.2349 35.1189C24.3923 35.5603 24.1799 36.0355 23.7478 36.1963L19.4707 37.8126Z" fill="#767676"/>
<path d="M37.554 29.335L38.0777 31.4863C38.1875 31.9427 37.8909 32.3991 37.4771 32.5039L34.7344 33.1998L39.1579 51.4198C39.2678 51.8762 39.0041 52.3252 38.5574 52.4374L36.3236 53.0024C35.9098 53.1071 35.4374 52.8452 35.3276 52.3888L30.904 34.1688L28.1906 34.8572C27.7438 34.9694 27.3044 34.7 27.1945 34.2436L26.6709 32.0924C26.561 31.6359 26.8247 31.187 27.2714 31.0747L36.5543 28.7215C36.9754 28.6167 37.4442 28.8786 37.554 29.335Z" fill="#767676"/>
<path d="M50.9917 39.0402L54.6829 44.2106C54.8916 44.5211 55.0088 44.9102 55.06 45.2768L55.5141 48.6028C55.5764 49.0667 55.3017 49.482 54.8476 49.5456L52.57 49.8711C52.1159 49.9347 51.6728 49.6242 51.6105 49.1603L51.2919 46.8332C51.2407 46.4666 51.1272 46.1111 50.9111 45.7333L46.5278 39.6425L47.901 49.7215C47.9633 50.1854 47.6557 50.6044 47.2016 50.668L44.9239 50.9935C44.4991 51.0533 44.0597 50.7428 43.9974 50.2789L41.0459 28.6582C40.9837 28.1942 41.3242 27.7715 41.7454 27.7116L47.3774 26.911C50.241 26.5032 52.8812 28.5684 53.2803 31.494L53.566 33.5891C53.8736 35.8489 52.7713 37.9739 50.9917 39.0402ZM47.8974 30.7346L45.3597 31.0975L46.0371 36.0546L48.5748 35.6917C49.2596 35.5945 49.7613 34.9135 49.6587 34.1466L49.3438 31.8532C49.2449 31.1199 48.5821 30.6373 47.8974 30.7346Z" fill="#767676"/>
<path d="M68.5114 29.7652L69.0057 44.6369C69.0863 47.0202 67.2444 48.9993 64.9447 49.0779L61.3304 49.2013C58.9978 49.2836 57.0607 47.4354 56.9838 45.0522L56.4894 30.1805C56.4088 27.7973 58.2178 25.7845 60.5504 25.7059L64.1647 25.5825C66.4607 25.5039 68.4308 27.3858 68.5114 29.7652ZM64.5785 30.2404C64.5639 29.769 64.1574 29.4472 63.696 29.4659L61.2645 29.552C60.8031 29.5669 60.4223 29.9186 60.4369 30.3863L60.9056 44.4836C60.9203 44.955 61.3304 45.3441 61.7882 45.3253L64.2197 45.2393C64.6811 45.2243 65.0619 44.8053 65.0436 44.3376L64.5785 30.2404Z" fill="#767676"/>
<path d="M76.502 26.6407L75.4328 45.4481L80.0247 45.7212C80.4825 45.7474 80.823 46.1402 80.7974 46.6079L80.6766 48.7517C80.6509 49.2193 80.2664 49.5672 79.8087 49.5411L72.0968 49.0846C71.639 49.0584 71.2985 48.6656 71.3241 48.1979L72.5618 26.4087C72.5875 25.9411 72.972 25.5931 73.4297 25.6193L75.7257 25.754C76.1871 25.7839 76.5276 26.173 76.502 26.6407Z" fill="#767676"/>
<path d="M88.6489 30.854L87.9495 35.8074L90.8131 36.2302C91.2671 36.2975 91.5747 36.7165 91.5088 37.1805L91.2195 39.2419C91.1536 39.7058 90.7435 40.0201 90.2894 39.9527L87.4258 39.53L86.4371 46.5448L90.9595 47.2107C91.4136 47.2781 91.7212 47.6971 91.6553 48.161L91.355 50.2898C91.2891 50.7537 90.879 51.068 90.4249 51.0006L82.7789 49.8745C82.3248 49.8072 82.0172 49.3881 82.0831 48.9242L85.1298 27.3185C85.1957 26.8546 85.6058 26.5404 86.0599 26.6077L93.7059 27.7338C94.16 27.8012 94.4676 28.2202 94.4017 28.6841L94.1014 30.8129C94.0355 31.2768 93.6254 31.591 93.1713 31.5237L88.6489 30.854Z" fill="#767676"/>
<path d="M107.254 30.8539L109.484 31.4338C109.93 31.5498 110.183 32.0324 110.07 32.4889L105.631 50.2563C105.064 52.5348 102.742 53.9378 100.516 53.3579L97.0112 52.445C94.7811 51.8651 93.4043 49.4931 93.9755 47.2184L98.4137 29.4509C98.5272 28.9945 98.974 28.6952 99.4207 28.8112L101.651 29.3911C102.098 29.5071 102.35 29.9897 102.237 30.4461L97.8937 47.8245C97.7802 48.2809 98.0732 48.7374 98.5199 48.8533L100.878 49.4669C101.325 49.5829 101.797 49.3247 101.911 48.8683L106.254 31.4899C106.36 31.0372 106.807 30.7379 107.254 30.8539Z" fill="#767676"/>
<path d="M123.122 57.9523L121.932 60.8293C121.748 61.2596 121.243 61.4392 120.851 61.2633L118.742 60.3243C118.321 60.1372 118.134 59.6508 118.317 59.2206L119.339 56.8186C119.419 56.6353 119.482 56.4782 119.533 56.2836L122.576 46.0287L117.347 54.6898C117.131 55.034 116.71 55.1762 116.347 55.0153L114.055 53.9977C113.692 53.8368 113.48 53.414 113.575 53.0175L116.215 43.204L110.942 52.4675C110.832 52.6396 110.766 52.793 110.69 52.9763L109.668 55.3782C109.485 55.8085 109.009 55.9993 108.588 55.8122L106.478 54.8731C106.057 54.6861 105.87 54.1997 106.054 53.7695L107.302 50.9186C107.343 50.825 107.434 50.6118 107.57 50.3761L117.102 34.7299C117.318 34.3857 117.739 34.2435 118.131 34.4193L120.39 35.4257C120.782 35.6016 120.965 36.0094 120.87 36.406L117.9 48.0864L124.275 37.9175C124.491 37.5733 124.912 37.4311 125.275 37.592L127.567 38.6096C127.959 38.7855 128.142 39.1933 128.047 39.5898L123.338 57.3798C123.254 57.6417 123.162 57.8587 123.122 57.9523Z" fill="#767676"/>
<path d="M66.7886 56.2126C66.774 56.2126 66.7557 56.2126 66.741 56.2126C66.7337 56.2126 66.7264 56.2126 66.7154 56.2126C66.7081 56.2126 66.7008 56.2126 66.6898 56.2126C66.6751 56.2126 66.6568 56.2126 66.6422 56.2126C43.4148 56.2126 22.9045 62.8646 10.5273 73.0333L16.379 76.0151L17.0858 82.9402C19.1657 81.0434 21.6998 79.2176 24.6732 77.5116C35.7212 71.1627 50.6251 67.6646 66.6385 67.6646C66.6532 67.6646 66.6715 67.6646 66.6861 67.6646C66.6934 67.6646 66.7008 67.6646 66.7118 67.6646C66.7191 67.6646 66.7264 67.6646 66.7374 67.6646C66.752 67.6646 66.7704 67.6646 66.785 67.6646C82.8021 67.6646 97.706 71.1627 108.75 77.5116C111.724 79.2214 114.258 81.0434 116.338 82.9402L117.044 76.0151L122.896 73.0333C110.526 62.8646 90.016 56.2126 66.7886 56.2126Z" fill="#767676"/>
<path d="M41.7599 85.5178C42.9866 85.5178 42.9866 83.5762 41.7599 83.5762C40.5332 83.5762 40.5332 85.5178 41.7599 85.5178Z" fill="#767676"/>
<path d="M90.2838 85.5178C91.5105 85.5178 91.5105 83.5762 90.2838 83.5762C89.0571 83.5762 89.0571 85.5178 90.2838 85.5178Z" fill="#767676"/>
<path d="M23.5209 72.5541C23.8614 73.134 23.6783 73.8822 23.1107 74.2301C22.5505 74.5742 21.8107 74.3909 21.4702 73.8111C21.1333 73.2387 21.32 72.4793 21.8803 72.1351C22.4479 71.7872 23.184 71.9818 23.5209 72.5541Z" fill="white"/>
<path d="M29.6404 70.1109L30.0726 71.05C30.3948 71.7497 30.1055 72.5877 29.4207 72.9207L27.9413 73.6316C27.8315 73.684 27.707 73.6391 27.6557 73.5268L25.2718 68.3562C25.2205 68.244 25.2645 68.1168 25.3743 68.0644L26.7293 67.4134C27.414 67.0842 28.2306 67.3909 28.5529 68.0906L28.7909 68.6069C28.9117 68.8688 28.952 69.1419 28.9044 69.4076C29.223 69.531 29.4866 69.7742 29.6404 70.1109ZM27.0808 69.7967L27.696 69.5011C27.8608 69.4225 27.934 69.213 27.8571 69.0446L27.6044 68.4947C27.5239 68.3188 27.3188 68.244 27.154 68.3226L26.5388 68.6181L27.0808 69.7967ZM28.6847 70.5113C28.6041 70.3354 28.3991 70.2606 28.2343 70.3392L27.4946 70.6946L28.2563 72.3483L28.996 71.9929C29.1608 71.9143 29.234 71.7048 29.1498 71.5214L28.6847 70.5113Z" fill="white"/>
<path d="M30.5369 66.8003L31.0202 68.0161L31.7233 67.7243C31.8368 67.6794 31.9577 67.7318 32.0053 67.8441L32.2067 68.3491C32.2506 68.4651 32.1993 68.5886 32.0895 68.6372L31.3864 68.929L32.0675 70.65L33.1771 70.1898C33.2869 70.1449 33.4114 70.1973 33.4554 70.3095L33.6641 70.8295C33.7081 70.9455 33.6568 71.069 33.5469 71.1176L31.6721 71.892C31.5585 71.9369 31.4377 71.8845 31.3901 71.7723L29.2882 66.4748C29.2442 66.3625 29.2955 66.2353 29.4053 66.1867L31.2802 65.4123C31.3901 65.3674 31.5146 65.4197 31.5585 65.532L31.7636 66.052C31.8075 66.1643 31.7563 66.2914 31.6464 66.3401L30.5369 66.8003Z" fill="white"/>
<path d="M34.9866 65.6924L34.928 65.5166C34.8657 65.3333 34.6717 65.2435 34.4922 65.3071L34.1187 65.4418C33.9393 65.5054 33.8404 65.6999 33.9027 65.8832L34.0748 66.3883C34.137 66.5716 34.3311 66.6614 34.5142 66.6053L34.8877 66.4706C35.6128 66.2125 36.3891 66.5978 36.6418 67.3386L36.9897 68.36C37.2387 69.0895 36.8578 69.8976 36.1438 70.152L35.7703 70.2867C35.0562 70.5411 34.2652 70.152 34.0162 69.4187L33.7855 68.7378C33.7452 68.6218 33.8038 68.4984 33.9173 68.4572L34.4849 68.2552C34.5984 68.2141 34.7193 68.2739 34.7596 68.3899L35.0049 69.1119C35.0672 69.2953 35.2649 69.3925 35.4443 69.3289L35.8179 69.1943C35.9973 69.1307 36.0925 68.9286 36.0302 68.7453L35.6604 67.6641C35.5981 67.4808 35.404 67.391 35.2246 67.4546L34.8511 67.5892C34.1334 67.8362 33.3497 67.4621 33.1007 66.7325L32.9396 66.2574C32.6906 65.5278 33.0714 64.7197 33.7855 64.4653L34.159 64.3306C34.8841 64.0725 35.664 64.4653 35.9131 65.1986L35.9607 65.3408C36.0009 65.4567 35.9424 65.5802 35.8288 65.6213L35.2612 65.8234C35.1477 65.8683 35.0269 65.8084 34.9866 65.6924Z" fill="white"/>
<path d="M39.2491 62.9392L39.4102 63.4967C39.4432 63.6164 39.3736 63.7361 39.2637 63.7698L38.5533 63.983L39.9192 68.6968C39.9522 68.8165 39.8899 68.9362 39.7727 68.9698L39.1941 69.1457C39.088 69.1793 38.9598 69.1158 38.9268 68.996L37.5609 64.2823L36.8615 64.4955C36.7443 64.5292 36.6272 64.4656 36.5942 64.3459L36.4331 63.7885C36.4001 63.6688 36.4624 63.549 36.5796 63.5154L38.9818 62.7896C39.0916 62.7597 39.2161 62.8195 39.2491 62.9392Z" fill="white"/>
<path d="M46.0698 66.3137L46.4067 66.2388C46.5056 66.2164 46.6301 66.2875 46.6557 66.4072L46.7766 66.9647C46.8022 67.0844 46.7216 67.2004 46.6045 67.2303L44.942 67.6082C44.2865 67.7579 43.6383 67.3351 43.4955 66.6729L42.7155 63.0773C42.569 62.4076 42.9828 61.7454 43.6383 61.5994L44.3451 61.4386C45.0005 61.2889 45.6487 61.7117 45.7915 62.3814L46.4324 65.3446C46.5129 65.7188 46.3591 66.0967 46.0698 66.3137ZM44.7808 62.6059C44.7552 62.4862 44.6307 62.4038 44.5135 62.4338L43.891 62.576C43.7738 62.6021 43.6932 62.7294 43.7225 62.8491L44.5025 66.4484C44.5282 66.5606 44.649 66.6392 44.7662 66.613L45.6048 66.4222L44.7808 62.6059Z" fill="white"/>
<path d="M49.0471 60.5147L49.6403 60.4099C49.7575 60.3875 49.871 60.4773 49.8893 60.597L50.6986 65.3262C50.8011 65.9323 50.3947 66.5235 49.8014 66.6282L48.8677 66.7929C48.2744 66.8976 47.6958 66.4823 47.5933 65.8762L46.784 61.147C46.762 61.0273 46.839 60.9038 46.9561 60.8851L47.5494 60.7803C47.6666 60.7579 47.7801 60.8477 47.7984 60.9674L48.5893 65.5918C48.6113 65.7116 48.7285 65.7901 48.8457 65.7677L49.4719 65.6555C49.5891 65.633 49.6769 65.5208 49.655 65.401L48.864 60.7766C48.853 60.6569 48.9299 60.5334 49.0471 60.5147Z" fill="white"/>
<path d="M54.754 64.8922L54.8528 65.6592C54.8675 65.7827 54.7869 65.8911 54.6661 65.9061L54.0582 65.9884C53.9484 66.0034 53.8422 65.9211 53.8239 65.7976L53.7213 65.0045L52.5788 65.1579L52.6813 65.951C52.696 66.0745 52.6154 66.183 52.4946 66.1979L51.8977 66.2802C51.7768 66.2952 51.6707 66.2129 51.656 66.0894L51.5571 65.3225C51.5535 65.2888 51.5498 65.2626 51.5498 65.2065L51.6633 60.2942C51.667 60.1782 51.7512 60.0884 51.8611 60.0735L53.1427 59.9014C53.2526 59.8864 53.3515 59.9724 53.3808 60.066L54.7283 64.7837C54.743 64.8324 54.7466 64.8586 54.754 64.8922ZM53.476 64.0355L52.6264 61.0163L52.5715 64.1552L53.476 64.0355Z" fill="white"/>
<path d="M56.1432 59.7811L56.6046 64.6934L57.8058 64.5736C57.9266 64.5624 58.0291 64.6485 58.0401 64.7719L58.0914 65.3331C58.1024 65.4566 58.0181 65.5614 57.8973 65.5726L55.8833 65.7709C55.7624 65.7821 55.6599 65.696 55.6489 65.5726L55.1142 59.8821C55.1033 59.7586 55.1875 59.6539 55.3083 59.6426L55.9089 59.5828C56.0297 59.5715 56.1323 59.6576 56.1432 59.7811Z" fill="white"/>
<path d="M59.7103 65.4379L59.1098 65.4828C58.9889 65.4903 58.8901 65.4005 58.8791 65.2771L58.4872 59.5829C58.4799 59.4594 58.5678 59.3472 58.685 59.3397L59.2855 59.2948C59.4064 59.2874 59.5089 59.3846 59.5162 59.5081L59.9081 65.2023C59.9191 65.3257 59.8312 65.4305 59.7103 65.4379Z" fill="white"/>
<path d="M63.3832 59.3052L63.4089 59.8851C63.4125 60.0085 63.3137 60.1096 63.2038 60.1133L62.4641 60.147L62.6728 65.0594C62.6765 65.1829 62.5886 65.2839 62.4678 65.2876L61.8672 65.3138C61.7537 65.3176 61.6475 65.2278 61.6438 65.1043L61.4351 60.1919L60.7027 60.2255C60.5819 60.2293 60.483 60.1395 60.4794 60.016L60.4537 59.4361C60.4501 59.3126 60.5379 59.2116 60.6588 59.2079L63.1635 59.0956C63.2697 59.0882 63.3759 59.1817 63.3832 59.3052Z" fill="white"/>
<path d="M66.6622 59.0409L67.2664 59.0334C67.3873 59.0334 67.4825 59.127 67.4825 59.2504L67.4898 60.1221C67.4898 60.2193 67.4752 60.3166 67.4312 60.4027L66.3583 62.7071L66.3803 64.9742C66.3803 65.0976 66.2887 65.1949 66.1679 65.1949L65.5637 65.2024C65.4428 65.2024 65.3476 65.1088 65.3476 64.9854L65.3256 62.7183L64.2014 60.4326C64.1648 60.3465 64.1392 60.2493 64.1392 60.152L64.1318 59.2804C64.1318 59.1569 64.2234 59.0596 64.3442 59.0596L64.9485 59.0522C65.0693 59.0522 65.1645 59.1457 65.1645 59.2691L65.1718 59.9388C65.1718 60.0099 65.1901 60.0809 65.2268 60.1408L65.831 61.3828L66.4132 60.1296C66.4389 60.0697 66.4535 59.9986 66.4535 59.9276L66.4462 59.2579C66.4498 59.1419 66.5414 59.0447 66.6622 59.0409Z" fill="white"/>
<path d="M72.9572 62.2996C72.9279 62.9769 72.3676 63.497 71.7048 63.4633C71.0493 63.4334 70.533 62.8609 70.5659 62.1836C70.5952 61.5138 71.1629 60.9862 71.8183 61.0198C72.4811 61.0535 72.9865 61.6335 72.9572 62.2996Z" fill="white"/>
<path d="M79.3642 63.5114L79.258 64.544C79.1811 65.3147 78.5073 65.8796 77.753 65.7973L76.1271 65.6252C76.0063 65.614 75.9221 65.5055 75.9367 65.382L76.5189 59.6992C76.5299 59.5757 76.6361 59.4897 76.757 59.5046L78.2474 59.6618C79.0017 59.7403 79.5437 60.4362 79.4668 61.2069L79.4082 61.7755C79.3789 62.0636 79.2763 62.318 79.0969 62.52C79.302 62.8006 79.4045 63.1448 79.3642 63.5114ZM78.3426 63.3506C78.3609 63.1598 78.2254 62.9839 78.0459 62.9652L77.233 62.8792L77.0463 64.6974L77.8592 64.7834C78.0386 64.8021 78.2107 64.66 78.229 64.4617L78.3426 63.3506ZM77.3319 61.8915L78.0093 61.9626C78.1888 61.9813 78.3609 61.8391 78.3792 61.6558L78.4414 61.0535C78.4597 60.8627 78.3243 60.6868 78.1448 60.6681L77.4674 60.5971L77.3319 61.8915Z" fill="white"/>
<path d="M81.7431 61.1133L81.56 62.4116L82.3107 62.5201C82.4316 62.5388 82.5121 62.6473 82.4938 62.767L82.4169 63.3058C82.3986 63.4293 82.2924 63.5116 82.1752 63.4929L81.4245 63.3844L81.1682 65.2214L82.351 65.3936C82.4718 65.4123 82.5524 65.5208 82.5341 65.6405L82.4572 66.198C82.4389 66.3215 82.3327 66.4038 82.2118 66.3851L80.2088 66.0932C80.088 66.0745 80.0111 65.966 80.0257 65.8463L80.8167 60.1891C80.835 60.0657 80.9412 59.9871 81.062 60.0021L83.0651 60.2939C83.1859 60.3126 83.2628 60.4211 83.2482 60.5408L83.1712 61.0983C83.1529 61.2218 83.0468 61.3004 82.9259 61.2854L81.7431 61.1133Z" fill="white"/>
<path d="M86.1152 62.4079L86.1481 62.2245C86.1811 62.0337 86.0566 61.8579 85.8699 61.8242L85.4817 61.7532C85.295 61.7195 85.1155 61.8355 85.0826 62.0263L84.9873 62.5538C84.9544 62.7446 85.0789 62.9204 85.2656 62.9616L85.6538 63.0326C86.4082 63.1748 86.8988 63.9006 86.7597 64.6675L86.5693 65.73C86.4338 66.4932 85.7124 67.002 84.969 66.8636L84.5809 66.7925C83.8375 66.6541 83.3358 65.9171 83.4713 65.1576L83.5995 64.4468C83.6215 64.3271 83.7313 64.2485 83.8485 64.271L84.4417 64.3832C84.5589 64.4057 84.6358 64.5179 84.6138 64.6376L84.4783 65.3896C84.4454 65.5804 84.5699 65.7637 84.7566 65.7974L85.1448 65.8685C85.3316 65.9021 85.511 65.7749 85.544 65.5841L85.7454 64.458C85.7783 64.2672 85.6538 64.0914 85.467 64.0577L85.0789 63.9866C84.3355 63.8407 83.8339 63.1187 83.9694 62.3592L84.0572 61.8654C84.1927 61.1059 84.9141 60.5934 85.6575 60.7318L86.0456 60.8029C86.8 60.9413 87.2907 61.6783 87.1515 62.4378L87.1259 62.5837C87.1039 62.7034 86.9941 62.782 86.8769 62.7595L86.2837 62.6473C86.1701 62.6436 86.0932 62.5313 86.1152 62.4079Z" fill="white"/>
<path d="M91.1196 62.127L90.9951 62.692C90.9695 62.8117 90.8487 62.8828 90.7388 62.8566L90.0174 62.692L88.9628 67.4883C88.9372 67.608 88.8237 67.6828 88.7065 67.6529L88.1169 67.5182C88.007 67.492 87.9265 67.376 87.9558 67.2563L89.0104 62.46L88.2963 62.2954C88.1792 62.2692 88.1059 62.1532 88.1352 62.0335L88.2597 61.4686C88.2853 61.3489 88.3989 61.274 88.516 61.304L90.9585 61.8652C91.0647 61.8913 91.1453 62.0073 91.1196 62.127Z" fill="white"/>
<path d="M96.9707 65.0267L96.8132 65.5655C96.5972 66.3063 95.8245 66.7328 95.1068 66.5121L94.4733 66.3175L93.7555 68.7682C93.7226 68.8879 93.6017 68.9515 93.4882 68.9178L92.9096 68.742C92.7925 68.7083 92.7302 68.5848 92.7668 68.4688L94.3671 62.9913C94.4 62.8754 94.5209 62.808 94.6344 62.8417L96.0516 63.2757C96.7693 63.4964 97.1867 64.2859 96.9707 65.0267ZM95.993 64.6825C96.0479 64.4954 95.9527 64.3046 95.7696 64.2485L95.1361 64.0539L94.7736 65.2998L95.4071 65.4944C95.5902 65.5505 95.7733 65.442 95.8245 65.2624L95.993 64.6825Z" fill="white"/>
<path d="M99.4183 67.87L99.6673 69.5274C99.6783 69.6246 99.66 69.7294 99.6307 69.8229L99.345 70.6535C99.3048 70.7694 99.1913 70.8331 99.0777 70.7919L98.5101 70.5861C98.3966 70.545 98.3307 70.4178 98.371 70.3018L98.5724 69.7219C98.6054 69.6321 98.62 69.5349 98.6127 69.4189L98.3124 67.4622L97.4445 69.9763C97.4042 70.0923 97.2834 70.1522 97.1699 70.111L96.6023 69.9052C96.4961 69.8678 96.4302 69.7406 96.4704 69.6246L98.3344 64.2336C98.3746 64.1176 98.5028 64.0615 98.609 64.0989L100.015 64.604C100.729 64.8621 101.099 65.6665 100.846 66.396L100.667 66.9198C100.466 67.4809 99.9603 67.8401 99.4183 67.87ZM99.6783 65.558L99.0448 65.3298L98.6163 66.5644L99.2498 66.7926C99.4219 66.8524 99.6197 66.7589 99.6856 66.5681L99.8833 65.9957C99.9493 65.8124 99.8504 65.6178 99.6783 65.558Z" fill="white"/>
<path d="M100.805 71.4956L100.245 71.2674C100.131 71.2225 100.08 71.0953 100.124 70.9831L102.197 65.6815C102.241 65.5656 102.369 65.5057 102.479 65.5506L103.039 65.7788C103.152 65.8237 103.2 65.9584 103.156 66.0744L101.083 71.3759C101.04 71.4882 100.919 71.5443 100.805 71.4956Z" fill="white"/>
<path d="M105.097 70.2871L105.646 70.5415C105.756 70.5938 105.8 70.7285 105.748 70.8408L105.148 72.2026C104.899 72.7638 104.247 73.022 103.69 72.7675L102.826 72.371C102.277 72.1166 102.028 71.4431 102.273 70.8819L103.844 67.3239C104.097 66.7552 104.745 66.5046 105.302 66.759L106.166 67.1556C106.722 67.4137 106.968 68.0759 106.719 68.6446L106.331 69.5276C106.283 69.6398 106.151 69.6959 106.041 69.6473L105.492 69.3929C105.382 69.3405 105.338 69.2058 105.39 69.0936L105.741 68.3004C105.789 68.1882 105.734 68.0572 105.635 68.0086L105.045 67.7392C104.935 67.6868 104.804 67.7317 104.752 67.844L103.269 71.2112C103.222 71.3234 103.277 71.4543 103.386 71.5067L103.976 71.7761C104.079 71.8247 104.21 71.7798 104.262 71.6676L104.818 70.4105C104.859 70.2945 104.987 70.2384 105.097 70.2871Z" fill="white"/>
<path d="M108.729 69.5464L108.136 70.7099L108.806 71.0691C108.912 71.1252 108.953 71.2562 108.898 71.3647L108.649 71.8473C108.594 71.9558 108.465 71.997 108.359 71.9408L107.689 71.5817L106.847 73.2279L107.909 73.7928C108.015 73.8489 108.055 73.9799 108 74.0884L107.744 74.586C107.689 74.6945 107.561 74.7356 107.455 74.6795L105.661 73.7217C105.554 73.6656 105.514 73.5347 105.569 73.4262L108.162 68.3566C108.216 68.2481 108.345 68.207 108.451 68.2631L110.245 69.2209C110.351 69.277 110.392 69.4079 110.337 69.5164L110.08 70.014C110.025 70.1225 109.897 70.1637 109.791 70.1076L108.729 69.5464Z" fill="white"/>
<path d="M111.922 73.7852C111.582 74.3652 110.849 74.556 110.282 74.208C109.721 73.8638 109.527 73.1117 109.868 72.5317C110.205 71.9592 110.948 71.7684 111.508 72.1089C112.08 72.4569 112.259 73.2127 111.922 73.7852Z" fill="white"/>
<path d="M69.3552 12.8174C69.3552 16.2443 66.6344 19.0241 63.2802 19.0241C59.9259 19.0241 57.2051 16.2443 57.2051 12.8174C57.2051 9.39039 63.2802 0.0859375 63.2802 0.0859375C63.2802 0.0859375 69.3552 9.39039 69.3552 12.8174Z" fill="#767676"/>
<path d="M50.4785 21.3064C48.1349 21.3064 46.2271 19.3572 46.2271 16.9628C46.2271 14.7741 49.618 9.51762 50.0061 8.92649L50.4822 8.20068L50.9582 8.92649C51.3464 9.51762 54.7373 14.7741 54.7373 16.9628C54.73 19.3572 52.8221 21.3064 50.4785 21.3064ZM50.4785 10.3183C49.3104 12.2001 47.3659 15.6122 47.3659 16.9628C47.3659 18.7137 48.7611 20.1429 50.4785 20.1429C52.1923 20.1429 53.5911 18.7174 53.5911 16.9628C53.5911 15.6122 51.6467 12.1964 50.4785 10.3183Z" fill="#767676"/>
<path d="M77.4438 20.5542C75.1002 20.5542 73.1924 18.605 73.1924 16.2106C73.1924 14.0219 76.5833 8.76542 76.9714 8.1743L77.4475 7.44849L77.9235 8.1743C78.3117 8.76542 81.7026 14.0219 81.7026 16.2106C81.6953 18.605 79.7874 20.5542 77.4438 20.5542ZM77.4438 9.56605C76.2757 11.4479 74.3312 14.86 74.3312 16.2106C74.3312 17.9652 75.7264 19.3907 77.4438 19.3907C79.1576 19.3907 80.5564 17.9652 80.5564 16.2106C80.5564 14.86 78.612 11.4479 77.4438 9.56605Z" fill="#767676"/>
</svg>
