<svg width="77" height="56" viewBox="0 0 77 56" fill="none" xmlns="http://www.w3.org/2000/svg">
<path d="M38.5 0C30.1941 0 23.4348 5.11061 23.4348 11.3911V28C23.4348 34.2817 30.1941 39.3911 38.5 39.3911C46.806 39.3911 53.5652 34.2817 53.5652 28V11.3911C53.5652 5.11061 46.806 0 38.5 0ZM38.5 36.9563C32.5811 36.9563 27.6849 33.5805 26.9032 29.2174H50.0952C49.3152 33.5817 44.419 36.9563 38.5 36.9563ZM50.2174 26.7826H26.7826V11.3911C26.7826 6.45217 32.0387 2.43478 38.5 2.43478C44.9613 2.43478 50.2174 6.45217 50.2174 11.3911V26.7826Z" fill="#FFB400"/>
<path d="M61.9348 21.9131C61.0108 21.9131 60.2609 22.4585 60.2609 23.1305V28C60.2609 36.7263 50.4986 43.8261 38.5 43.8261C26.5014 43.8261 16.7391 36.7263 16.7391 28V23.1305C16.7391 22.4585 15.9892 21.9131 15.0652 21.9131C14.1412 21.9131 13.3913 22.4585 13.3913 23.1305V28C13.3913 37.6576 23.7612 45.5682 36.8261 46.1988V53.5653H28.4565C27.5325 53.5653 26.7826 54.1106 26.7826 54.7826C26.7826 55.4547 27.5325 56 28.4565 56H48.5435C49.4675 56 50.2174 55.4547 50.2174 54.7826C50.2174 54.1106 49.4675 53.5653 48.5435 53.5653H40.1739V46.1988C53.2388 45.5682 63.6087 37.6576 63.6087 28V23.1305C63.6087 22.4585 62.8588 21.9131 61.9348 21.9131Z" fill="#FFB400"/>
</svg>
