<svg width="57" height="68" viewBox="0 0 57 68" fill="none" xmlns="http://www.w3.org/2000/svg">
<g clip-path="url(#clip0_311_1299)">
<path d="M52.8986 7.4375H4.00072C3.17573 7.43859 2.38479 7.83074 1.80144 8.5279C1.21808 9.22507 0.88995 10.1703 0.889038 11.1562V48.3438C0.88995 49.3297 1.21808 50.2749 1.80144 50.9721C2.38479 51.6693 3.17573 52.0614 4.00072 52.0625H21.8018L20.7349 55.25H16.0029C15.7671 55.25 15.541 55.3619 15.3743 55.5612C15.2075 55.7605 15.1139 56.0307 15.1139 56.3125V58.4375H9.77956C9.54377 58.4375 9.31763 58.5494 9.1509 58.7487C8.98417 58.948 8.8905 59.2182 8.8905 59.5C8.8905 59.7818 8.98417 60.052 9.1509 60.2513C9.31763 60.4506 9.54377 60.5625 9.77956 60.5625H47.1197C47.3555 60.5625 47.5817 60.4506 47.7484 60.2513C47.9151 60.052 48.0088 59.7818 48.0088 59.5C48.0088 59.2182 47.9151 58.948 47.7484 58.7487C47.5817 58.5494 47.3555 58.4375 47.1197 58.4375H41.7854V56.3125C41.7854 56.0307 41.6918 55.7605 41.525 55.5612C41.3583 55.3619 41.1322 55.25 40.8964 55.25H36.1644L35.0975 52.0625H52.8986C53.7236 52.0614 54.5145 51.6693 55.0979 50.9721C55.6812 50.2749 56.0093 49.3297 56.0103 48.3438V11.1562C56.0093 10.1703 55.6812 9.22507 55.0979 8.5279C54.5145 7.83074 53.7236 7.43859 52.8986 7.4375ZM40.0073 57.375V58.4375H16.892V57.375H40.0073ZM22.6508 55.25L23.7177 52.0625H33.1816L34.2485 55.25H22.6508ZM54.2321 48.3438C54.2318 48.7663 54.0913 49.1715 53.8412 49.4703C53.5912 49.7691 53.2522 49.9371 52.8986 49.9375H4.00072C3.64712 49.9371 3.30809 49.7691 3.05806 49.4703C2.80803 49.1715 2.66744 48.7663 2.66714 48.3438V45.6875H54.2321V48.3438ZM54.2321 43.5625H2.66714V11.1562C2.66744 10.7337 2.80803 10.3285 3.05806 10.0297C3.30809 9.73088 3.64712 9.56285 4.00072 9.5625H52.8986C53.2522 9.56285 53.5912 9.73088 53.8412 10.0297C54.0913 10.3285 54.2318 10.7337 54.2321 11.1562V43.5625Z" fill="#FFB400"/>
<path d="M24.4056 34.888C24.5032 34.9646 24.6125 35.0174 24.7272 35.0435C24.8419 35.0696 24.9598 35.0684 25.0741 35.04C25.1884 35.0117 25.2969 34.9567 25.3935 34.8782C25.49 34.7997 25.5726 34.6992 25.6367 34.5826L32.638 21.8326C32.7674 21.597 32.8132 21.3096 32.7653 21.0337C32.7174 20.7578 32.5797 20.5159 32.3826 20.3613C32.1855 20.2066 31.945 20.1519 31.7141 20.2092C31.4833 20.2664 31.2809 20.4309 31.1515 20.6665L24.1502 33.4165C24.0861 33.5331 24.0418 33.6637 24.02 33.8008C23.9981 33.9379 23.9991 34.0788 24.0228 34.2155C24.0465 34.3521 24.0925 34.4819 24.1582 34.5973C24.2239 34.7127 24.3079 34.8115 24.4056 34.888Z" fill="#FFB400"/>
<path d="M34.1039 34.8165C34.285 34.9969 34.5187 35.0839 34.7535 35.0583C34.9883 35.0328 35.205 34.8968 35.356 34.6804L39.8012 28.3054C39.9344 28.1144 40.0073 27.8738 40.0073 27.6252C40.0073 27.3767 39.9344 27.136 39.8012 26.9451L35.356 20.5701C35.2815 20.462 35.1898 20.3726 35.0863 20.307C34.9828 20.2413 34.8695 20.2008 34.7528 20.1878C34.6361 20.1747 34.5185 20.1893 34.4065 20.2307C34.2946 20.2722 34.1907 20.3397 34.1006 20.4293C34.0106 20.519 33.9363 20.629 33.882 20.7531C33.8277 20.8772 33.7944 21.0128 33.7841 21.1523C33.7738 21.2918 33.7867 21.4324 33.8221 21.5659C33.8574 21.6994 33.9144 21.8233 33.99 21.9304L37.9609 27.6252L33.99 33.3201C33.839 33.5366 33.7662 33.8159 33.7876 34.0965C33.809 34.3771 33.9227 34.6361 34.1039 34.8165Z" fill="#FFB400"/>
<path d="M21.5432 34.6804C21.6177 34.7884 21.7094 34.8779 21.8129 34.9435C21.9164 35.0091 22.0298 35.0496 22.1464 35.0627C22.2631 35.0758 22.3808 35.0612 22.4927 35.0197C22.6046 34.9782 22.7086 34.9107 22.7986 34.8211C22.8886 34.7315 22.9629 34.6214 23.0172 34.4974C23.0716 34.3733 23.1048 34.2376 23.1151 34.0981C23.1254 33.9586 23.1125 33.8181 23.0772 33.6845C23.0418 33.551 22.9848 33.4272 22.9093 33.3201L18.9383 27.6252L22.9093 21.9304C22.9848 21.8233 23.0418 21.6994 23.0772 21.5659C23.1125 21.4324 23.1254 21.2918 23.1151 21.1523C23.1048 21.0128 23.0716 20.8772 23.0172 20.7531C22.9629 20.629 22.8886 20.519 22.7986 20.4293C22.7086 20.3397 22.6046 20.2722 22.4927 20.2307C22.3808 20.1893 22.2631 20.1747 22.1464 20.1878C22.0298 20.2008 21.9164 20.2413 21.8129 20.307C21.7094 20.3726 21.6177 20.462 21.5432 20.5701L17.098 26.9451C16.9649 27.136 16.892 27.3767 16.892 27.6252C16.892 27.8737 16.9649 28.1144 17.098 28.3054L21.5432 34.6804Z" fill="#FFB400"/>
</g>
<defs>
<clipPath id="clip0_311_1299">
<rect width="56.8993" height="68" fill="white"/>
</clipPath>
</defs>
</svg>
