<svg width="78" height="56" viewBox="0 0 78 56" fill="none" xmlns="http://www.w3.org/2000/svg">
<path d="M55.3548 52.3871H74.7127L69.7433 41.683C68.4437 38.8839 65.1275 36.8083 61.0878 36.2645L47.8064 34.4761V32.2696C50.9881 30.6212 53.2337 28.1102 53.8854 25.2145C56.8544 24.8541 59.129 23.007 59.129 20.7742V14.4516C59.129 6.48336 50.0986 0 39 0C27.9013 0 18.8709 6.48336 18.8709 14.4516V20.7742C18.8709 23.0043 21.1342 24.8622 24.0982 25.2262C24.7524 28.1219 27.0106 30.6356 30.1935 32.2831V34.477L16.9109 36.2654C12.8725 36.8092 9.55497 38.8848 8.25539 41.6839L3.28729 52.3871H22.6451V50.5806H19.2245L21.3493 44.4766L18.9087 44.0395L16.6303 50.5806H6.77716L10.6432 42.2547C11.6534 40.0779 14.2337 38.463 17.3751 38.0394L25.389 36.9609L27.4384 43.5797C26.0998 43.997 25.1613 44.9526 25.1613 46.0645V53.2903C25.1613 54.7843 26.8546 56 28.9355 56H49.0645C51.1453 56 52.8387 54.7843 52.8387 53.2903V46.0645C52.8387 44.9526 51.9002 43.997 50.5629 43.5797L52.6122 36.9609L60.6261 38.0394C63.7675 38.463 66.3465 40.0779 67.358 42.2547L71.2228 50.5806H61.3696L59.0913 44.0395L56.6506 44.4766L58.7755 50.5806H55.3548V52.3871ZM50.1376 36.6276L48.4002 42.2403L47.5309 39.7419H42.0369L46.9686 36.2013L50.1376 36.6276ZM46.1949 43.3548H31.8051L32.4341 41.5484H45.5658L46.1949 43.3548ZM39 39.368L32.7097 34.8519V33.329C34.6269 33.9631 36.7543 34.3226 39 34.3226C41.2469 34.3226 43.373 33.9586 45.2903 33.3245V34.8519L39 39.368ZM54.0968 23.3177V18.2316C55.5574 18.6055 56.6129 19.5991 56.6129 20.7751C56.6129 21.9511 55.5574 22.9437 54.0968 23.3177ZM23.9032 23.3294C22.4388 22.9564 21.3871 21.952 21.3871 20.7742C21.3871 19.5964 22.4388 18.592 23.9032 18.219V23.3294ZM21.3871 17.1848V14.4516C21.3871 7.47871 29.2877 1.80645 39 1.80645C48.7122 1.80645 56.6129 7.47871 56.6129 14.4516V17.1848C55.8681 16.7801 55.0076 16.4812 54.0565 16.3466C53.859 15.2799 52.5984 14.4516 51.0598 14.4516C50.2609 14.4516 49.4784 14.6846 48.8494 15.1363C46.7245 16.6618 44.0322 17.6346 41.116 17.9507L41.1966 17.8351C41.4054 17.5334 41.5161 17.1965 41.5161 16.8596V16.632C41.5161 15.4298 40.1536 14.4516 38.4791 14.4516C37.6803 14.4516 36.8977 14.6846 36.3316 15.0902C33.6809 16.9924 30.1646 18.0474 26.4193 18.0645V16.2581H25.1613C23.7397 16.2581 22.4413 16.6112 21.3871 17.1848ZM26.4193 23.4839V19.871C30.8364 19.8538 34.9855 18.611 38.1093 16.3683C38.4125 16.1497 39 16.3276 39 16.632V16.8596C39 16.9174 38.9811 16.9752 38.9446 17.0276L36.9644 19.871H39C43.3931 19.871 47.5221 18.6435 50.6899 16.3683C50.9944 16.1497 51.5806 16.3276 51.5806 16.632V23.4839C51.5806 28.4643 45.9369 32.5161 39 32.5161C32.063 32.5161 26.4193 28.4643 26.4193 23.4839ZM31.0314 36.2013L35.963 39.7419H30.469L29.5997 42.2403L27.8623 36.6276L31.0314 36.2013ZM28.9355 54.1935C28.2423 54.1935 27.6774 53.7889 27.6774 53.2903V46.0645C27.6774 45.5659 28.2423 45.1613 28.9355 45.1613H32.8493C31.2126 46.3102 30.1935 47.9089 30.1935 49.6774C30.1935 51.4459 31.2126 53.0446 32.8493 54.1935H28.9355ZM39 54.1935C35.5315 54.1935 32.7097 52.1676 32.7097 49.6774C32.7097 47.1872 35.5315 45.1613 39 45.1613C42.4685 45.1613 45.2903 47.1872 45.2903 49.6774C45.2903 52.1676 42.4685 54.1935 39 54.1935ZM50.3226 53.2903C50.3226 53.7889 49.7577 54.1935 49.0645 54.1935H45.1507C46.7874 53.0446 47.8064 51.4459 47.8064 49.6774C47.8064 47.9089 46.7874 46.3102 45.1507 45.1613H49.0645C49.7577 45.1613 50.3226 45.5659 50.3226 46.0645V53.2903Z" fill="#FFB400"/>
<path d="M39 46.9678C36.9192 46.9678 35.2258 48.1835 35.2258 49.6775C35.2258 51.1714 36.9192 52.3871 39 52.3871C41.0809 52.3871 42.7742 51.1714 42.7742 49.6775C42.7742 48.1835 41.0809 46.9678 39 46.9678ZM39 50.5807C38.3068 50.5807 37.742 50.176 37.742 49.6775C37.742 49.1789 38.3068 48.7742 39 48.7742C39.6932 48.7742 40.2581 49.1789 40.2581 49.6775C40.2581 50.176 39.6932 50.5807 39 50.5807Z" fill="#FFB400"/>
</svg>
