<svg width="78" height="58" viewBox="0 0 78 58" fill="none" xmlns="http://www.w3.org/2000/svg">
<g clip-path="url(#clip0_311_1957)">
<path d="M36.2578 42.083C35.6267 42.083 35.1152 42.4634 35.1152 42.9326C35.1152 43.4018 35.6267 43.7822 36.2578 43.7822H41.7422C42.3733 43.7822 42.8848 43.4018 42.8848 42.9326C42.8848 42.4634 42.3733 42.083 41.7422 42.083H36.2578Z" fill="#FFB400"/>
<path d="M13.7109 28.8906H21.2635C21.7248 29.7834 22.8871 30.4199 24.2481 30.4199C25.6091 30.4199 26.7714 29.7834 27.2327 28.8906H28.7422C29.3734 28.8906 29.8848 28.5102 29.8848 28.041C29.8848 27.5718 29.3734 27.1914 28.7422 27.1914H27.2327C26.7714 26.2986 25.6091 25.6621 24.2481 25.6621C22.8871 25.6621 21.7248 26.2986 21.2635 27.1914H13.7109C13.0798 27.1914 12.5684 27.5718 12.5684 28.041C12.5684 28.5102 13.0798 28.8906 13.7109 28.8906ZM24.2481 27.3613C24.7522 27.3613 25.1622 27.6662 25.1622 28.041C25.1622 28.4159 24.7522 28.7207 24.2481 28.7207C23.744 28.7207 23.334 28.4159 23.334 28.041C23.334 27.6662 23.744 27.3613 24.2481 27.3613Z" fill="#FFB400"/>
<path d="M13.7109 24.0195H15.1698C15.6311 24.9123 16.7933 25.5488 18.1543 25.5488C19.5154 25.5488 20.6776 24.9123 21.1389 24.0195H28.7422C29.3734 24.0195 29.8848 23.6391 29.8848 23.1699C29.8848 22.7007 29.3734 22.3203 28.7422 22.3203H21.1389C20.6776 21.4275 19.5154 20.791 18.1543 20.791C16.7933 20.791 15.6311 21.4275 15.1698 22.3203H13.7109C13.0798 22.3203 12.5684 22.7007 12.5684 23.1699C12.5684 23.6391 13.0798 24.0195 13.7109 24.0195ZM18.1543 22.4902C18.6585 22.4902 19.0684 22.7951 19.0684 23.1699C19.0684 23.5448 18.6585 23.8496 18.1543 23.8496C17.6502 23.8496 17.2403 23.5448 17.2403 23.1699C17.2403 22.7951 17.6502 22.4902 18.1543 22.4902Z" fill="#FFB400"/>
<path d="M28.9708 16.2031C29.6018 16.2031 30.1133 15.8227 30.1133 15.3535C30.1133 14.8843 29.6018 14.5039 28.9708 14.5039C28.3397 14.5039 27.8282 14.8843 27.8282 15.3535C27.8282 15.8227 28.3397 16.2031 28.9708 16.2031Z" fill="#FFB400"/>
<path d="M25.8223 16.2031C26.4533 16.2031 26.9648 15.8227 26.9648 15.3535C26.9648 14.8843 26.4533 14.5039 25.8223 14.5039C25.1912 14.5039 24.6797 14.8843 24.6797 15.3535C24.6797 15.8227 25.1912 16.2031 25.8223 16.2031Z" fill="#FFB400"/>
<path d="M22.6738 16.2031C23.3048 16.2031 23.8163 15.8227 23.8163 15.3535C23.8163 14.8843 23.3048 14.5039 22.6738 14.5039C22.0427 14.5039 21.5312 14.8843 21.5312 15.3535C21.5312 15.8227 22.0427 16.2031 22.6738 16.2031Z" fill="#FFB400"/>
<path d="M74.5723 5.71887H74.1443L74.4635 5.48154C75.4194 4.77071 75.4194 3.61399 74.4635 2.90315L71.9623 1.0433C71.0064 0.332572 69.4509 0.332572 68.4948 1.0433L62.2074 5.71876H3.42773C1.53776 5.71876 0 6.8621 0 8.26758V43.5506C0 45.2684 1.87931 46.6658 4.18945 46.6658H31.2526V52.676H25.7461C24.2761 52.676 23.0801 53.5654 23.0801 54.6584V55.5073C23.0801 56.6004 24.2761 57.4898 25.7461 57.4898H52.2539C53.7239 57.4898 54.9199 56.6004 54.9199 55.5073V54.6584C54.9199 53.5654 53.7239 52.676 52.2539 52.676H46.7474V46.6658H58.957C59.5882 46.6658 60.0996 46.2854 60.0996 45.8162C60.0996 45.347 59.5882 44.9666 58.957 44.9666H4.18945C3.13935 44.9666 2.28516 44.3315 2.28516 43.5506V41.0358H75.7148V43.5506C75.7148 44.3315 74.8606 44.9666 73.8105 44.9666H64.2891C63.6579 44.9666 63.1465 45.347 63.1465 45.8162C63.1465 46.2854 63.6579 46.6658 64.2891 46.6658H73.8105C76.1207 46.6658 78 45.2684 78 43.5506V8.2677C78 6.86233 76.4622 5.71887 74.5723 5.71887ZM52.2539 54.3753C52.464 54.3753 52.6348 54.5024 52.6348 54.6585V55.5074C52.6348 55.6635 52.464 55.7906 52.2539 55.7906H25.7461C25.536 55.7906 25.3652 55.6635 25.3652 55.5074V54.6585C25.3652 54.5024 25.536 54.3753 25.7461 54.3753H52.2539ZM33.5377 46.6661H44.4624V52.6762H33.5377V46.6661ZM70.1107 2.24499C70.1759 2.19662 70.2817 2.19673 70.3465 2.24499L72.8476 4.10472C72.9126 4.1531 72.9126 4.23183 72.8476 4.28008L70.4611 6.05463L67.7243 4.01954L70.1107 2.24499ZM66.1084 5.22111L68.8451 7.25621L68.0481 7.84878L65.3114 5.81369L66.1084 5.22111ZM63.6955 7.01526L66.4324 9.05036L52.9117 19.1042L50.1749 17.0691L63.6955 7.01526ZM62.0039 14.7828C63.558 14.7828 64.8223 15.723 64.8223 16.8785C64.8223 18.0341 63.558 18.9742 62.0039 18.9742C60.4498 18.9742 59.1855 18.0341 59.1855 16.8785C59.1855 16.8651 59.188 16.852 59.1883 16.8386L61.9506 14.7849C61.9684 14.7847 61.9859 14.7828 62.0039 14.7828ZM50.9276 20.032L47.546 21.059L48.9272 18.5445L50.9276 20.032ZM75.7148 39.3368H2.28516V8.2677C2.28516 7.79928 2.79764 7.41809 3.42773 7.41809H59.9224L58.1802 8.71357H19.3477C18.7165 8.71357 18.2051 9.09397 18.2051 9.56318C18.2051 10.0324 18.7165 10.4128 19.3477 10.4128H55.8952L47.8361 16.4058C47.6083 16.5767 47.4302 16.776 47.3076 16.9992L44.7554 21.6455C44.5212 22.0723 44.6532 22.5586 45.0915 22.8844C45.3856 23.1031 45.7769 23.2191 46.1758 23.2191C46.3715 23.2191 46.5687 23.1913 46.7575 23.134L53.0059 21.2364C53.2975 21.1478 53.5583 21.0195 53.7837 20.857L57.2596 18.2727C58.0084 19.6773 59.8517 20.6736 62.0041 20.6736C64.8182 20.6736 67.1076 18.9712 67.1076 16.8787C67.1076 15.2784 65.768 13.9079 63.8794 13.351L67.8311 10.4129H71.6875V36.3422H71.0819L66.9412 31.0092C66.6259 30.6028 65.9266 30.4636 65.3805 30.6983C64.834 30.9329 64.6468 31.4525 64.9623 31.8589L68.4433 36.3422H52.4823L50.7704 34.1374L58.7509 23.859L62.2961 28.4252C62.6118 28.8315 63.3106 28.9709 63.8569 28.7361C64.4033 28.5015 64.5905 27.9819 64.275 27.5756L60.4928 22.7044C60.1292 22.2361 59.478 21.9565 58.7508 21.9565C58.0235 21.9565 57.3722 22.2361 57.0086 22.7044L49.4508 32.4383L39.7535 19.9489C39.3899 19.4806 38.7387 19.201 38.0113 19.201C37.2842 19.201 36.6329 19.4806 36.2692 19.9489L33.693 23.267V14.16C33.693 13.067 32.4969 12.1776 31.0269 12.1776H11.4258C9.95582 12.1776 8.75977 13.067 8.75977 14.16V32.7381C8.75977 33.519 9.61396 34.1542 10.6641 34.1542H25.2402L23.5412 36.3423H6.31267V10.4128H14.0156C14.6468 10.4128 15.1582 10.0324 15.1582 9.56318C15.1582 9.09397 14.6468 8.71357 14.0156 8.71357H5.93181C4.8817 8.71357 4.02751 9.34874 4.02751 10.1296V36.6253C4.02751 37.4061 4.8817 38.0413 5.93181 38.0413H72.0683C73.1184 38.0413 73.9726 37.4061 73.9726 36.6253V10.1296C73.9726 9.34874 73.1184 8.71357 72.0683 8.71357H70.1165L71.859 7.41809H74.5723C75.2024 7.41809 75.7148 7.79928 75.7148 8.2677V39.3368ZM31.4083 18.8653V32.4547H11.0449V18.8653H31.4083ZM11.0449 17.1661V14.1598C11.0449 14.0037 11.2157 13.8766 11.4258 13.8766H31.0274C31.2375 13.8766 31.4083 14.0037 31.4083 14.1598V17.1661H11.0449ZM27.8789 34.1539H31.7891C32.8392 34.1539 33.6934 33.5188 33.6934 32.7379V30.9382C33.9792 31.0402 34.2975 31.0953 34.6308 31.0953C35.4108 31.0953 36.1091 30.7954 36.499 30.2932L38.4435 27.7889C38.5023 27.7132 38.5922 27.6972 38.6569 27.6972C38.722 27.6972 38.8119 27.7132 38.8705 27.7889L40.0693 29.3328C40.4593 29.8352 41.1578 30.1351 41.938 30.1351C42.7179 30.1351 43.4164 29.8352 43.8063 29.3329L44.104 28.9496L49.8437 36.342H26.18L27.8789 34.1539ZM33.6934 28.0942V26.6653L38.0119 21.1035L42.7845 27.2503L41.9378 28.3408L40.8495 26.9392C40.3918 26.3498 39.5722 25.9979 38.6568 25.9979C37.7415 25.9979 36.9219 26.3498 36.4642 26.9392L34.6303 29.3011L33.6934 28.0942Z" fill="#FFB400"/>
</g>
<defs>
<clipPath id="clip0_311_1957">
<rect width="78" height="58" fill="white"/>
</clipPath>
</defs>
</svg>
