<svg width="77" height="57" viewBox="0 0 77 57" fill="none" xmlns="http://www.w3.org/2000/svg">
<path d="M33.6875 29.3906H43.3125V31.1719H33.6875V29.3906Z" fill="#FFB400"/>
<path d="M37.2969 26.7188H39.7031V33.8438H37.2969V26.7188Z" fill="#FFB400"/>
<path d="M68.5781 29.3906H70.9844V31.1719H68.5781V29.3906Z" fill="#FFB400"/>
<path d="M58.9531 29.3906H61.3594V31.1719H58.9531V29.3906Z" fill="#FFB400"/>
<path d="M63.7656 25.8281H66.1719V27.6094H63.7656V25.8281Z" fill="#FFB400"/>
<path d="M63.7656 32.9531H66.1719V34.7344H63.7656V32.9531Z" fill="#FFB400"/>
<path d="M11.0919 15.6973L5.67786 10.6875L11.0919 5.67773L12.9706 6.79102L8.75969 10.6875L12.9706 14.584L11.0919 15.6973Z" fill="#FFB400"/>
<path d="M29.8144 15.6973L27.9357 14.584L32.1478 10.6875L27.9357 6.79102L29.8144 5.67773L35.2273 10.6875L29.8144 15.6973Z" fill="#FFB400"/>
<path d="M15.3351 13.6623L23.7594 6.53906L25.5699 7.71192L17.1457 14.8356L15.3351 13.6623Z" fill="#FFB400"/>
<path d="M9.625 39.1875H4.8125V35.625H7.21875V37.4062H9.625V39.1875Z" fill="#FFB400"/>
<path d="M73.3906 1.78125H3.60938C1.61611 1.78125 0 2.97759 0 4.45312V40.0781C0 41.5537 1.61611 42.75 3.60938 42.75H28.875V47.2031C28.875 48.6787 27.2589 49.875 25.2656 49.875H19.25V55.2188H57.75V49.875H51.7344C49.7411 49.875 48.125 48.6787 48.125 47.2031V42.75H73.3906C75.3839 42.75 77 41.5537 77 40.0781V4.45312C77 2.97759 75.3839 1.78125 73.3906 1.78125ZM55.3438 51.6562V53.4375H21.6562V51.6562H55.3438ZM38.5 48.1311C40.4933 48.1311 42.1094 46.9348 42.1094 45.4593V42.75H45.7188V47.2031C45.7234 48.1699 46.157 49.1087 46.953 49.875H30.047C30.843 49.1087 31.2766 48.1699 31.2812 47.2031V42.75H34.8906V45.4593C34.8906 46.9348 36.5067 48.1311 38.5 48.1311ZM37.2969 45.4593V42.75H39.7031V45.4593C39.7031 45.9511 39.1644 46.3499 38.5 46.3499C37.8356 46.3499 37.2969 45.9511 37.2969 45.4593ZM74.5938 40.0781C74.5938 40.57 74.055 40.9688 73.3906 40.9688H3.60938C2.94495 40.9688 2.40625 40.57 2.40625 40.0781V32.0625H26.7096C27.7059 35.6881 31.6279 38.4791 36.5614 39.0727C41.4943 39.6667 46.409 37.9394 48.9057 34.7344H54.5607C56.5768 37.3293 60.2238 38.9979 64.2609 39.1727C68.2979 39.3475 72.1822 38.0051 74.5938 35.602V40.0781ZM64.9688 37.4062C61.3118 37.4128 57.9697 35.8759 56.3565 33.4467L56.0234 32.9531H47.4453L47.1122 33.4467C45.002 36.5961 40.1044 38.136 35.578 37.0727C31.051 36.009 28.2488 32.6609 28.9784 29.1867C29.7074 25.7129 33.7509 23.1523 38.5 23.1562H64.9688C70.2847 23.1562 74.5938 26.3461 74.5938 30.2812C74.5938 34.2164 70.2847 37.4062 64.9688 37.4062ZM74.5938 24.9605C72.3308 22.707 68.762 21.3776 64.9688 21.375H38.5C31.8581 21.3802 26.4758 25.3645 26.4688 30.2812H2.40625V4.45312C2.40625 3.96128 2.94495 3.5625 3.60938 3.5625H73.3906C74.055 3.5625 74.5938 3.96128 74.5938 4.45312V24.9605Z" fill="#FFB400"/>
<path d="M49.3281 29.3906H54.1406V31.1719H49.3281V29.3906Z" fill="#FFB400"/>
<path d="M36.0938 7.125H45.7188V8.90625H36.0938V7.125Z" fill="#FFB400"/>
<path d="M50.5312 7.125H69.7812V8.90625H50.5312V7.125Z" fill="#FFB400"/>
<path d="M52.9375 10.6875H69.7812V12.4688H52.9375V10.6875Z" fill="#FFB400"/>
<path d="M38.5 10.6875H48.125V12.4688H38.5V10.6875Z" fill="#FFB400"/>
<path d="M36.0938 14.25H60.1562V16.0312H36.0938V14.25Z" fill="#FFB400"/>
<path d="M64.9688 14.25H69.7812V16.0312H64.9688V14.25Z" fill="#FFB400"/>
<path d="M7.21875 17.8125H19.25V19.5938H7.21875V17.8125Z" fill="#FFB400"/>
<path d="M24.0625 17.8125H46.9219V19.5938H24.0625V17.8125Z" fill="#FFB400"/>
<path d="M50.5312 17.8125H69.7812V19.5938H50.5312V17.8125Z" fill="#FFB400"/>
<path d="M7.21875 21.375H26.4688V23.1562H7.21875V21.375Z" fill="#FFB400"/>
<path d="M7.21875 24.9375H16.8438V26.7188H7.21875V24.9375Z" fill="#FFB400"/>
<path d="M19.25 24.9375H24.0625V26.7188H19.25V24.9375Z" fill="#FFB400"/>
</svg>
